<svg height="512pt" viewBox="-1 0 511 512" width="512pt" xmlns="http://www.w3.org/2000/svg"><path d="m202.445312 512c-10.234374 0-24.363281-5.933594-31.5-13.222656l-74.339843-75.976563c-7.132813-7.292969-12.941407-21.5-12.941407-31.675781v-298.878906h-76.976562c-3.417969 0-6.1875-2.753906-6.1875-6.148438v-79.949218c0-3.394532 2.769531-6.148438 6.1875-6.148438h496.136719c3.414062 0 6.183593 2.753906 6.183593 6.148438v79.949218c0 3.394532-2.769531 6.148438-6.183593 6.148438h-76.980469v298.878906c0 10.175781-5.804688 24.382812-12.941406 31.675781l-74.339844 75.976563c-7.132812 7.289062-21.265625 13.222656-31.5 13.222656zm0 0" fill="#a2f9f9"/><path d="m115.402344 121.46875c-5.773438 1-11.714844 1.527344-17.777344 1.527344h-13.960938v220.835937c9.960938.871094 20.816407 2.902344 31.734376 6.855469v-229.21875zm0 0" fill="#91e0e0"/><path d="m186.089844 5.535156v-5.535156h-179.402344c-3.417969 0-6.1875 2.753906-6.1875 6.148438v79.949218c0 3.394532 2.769531 6.148438 6.1875 6.148438h76.976562v30.75h13.960938c48.863281 0 89.753906-33.925782 100.136719-79.378906-7.371094-10.878907-11.671875-23.980469-11.671875-38.082032zm0 0" fill="#89c947"/><path d="m502.824219 0h-179.402344v5.535156c0 14.101563-4.304687 27.203125-11.675781 38.082032 10.386718 45.453124 51.277344 79.378906 100.140625 79.378906h13.957031v-30.75h76.980469c3.414062 0 6.183593-2.753906 6.183593-6.148438v-79.949218c0-3.394532-2.769531-6.148438-6.183593-6.148438zm0 0" fill="#89c947"/><path d="m164.4375 450.164062c0-14.8125 5.382812-28.371093 14.304688-38.863281-23.027344-50.382812-63.550782-64.710937-95.078126-67.46875v47.296875c0 10.144532 5.824219 24.398438 12.941407 31.671875l67.832031 69.320313zm0 0" fill="#9ea7af"/><path d="m330.769531 411.300781c8.917969 10.492188 14.304688 24.050781 14.304688 38.863281v41.957032l67.832031-69.320313c7.117188-7.273437 12.941406-21.527343 12.941406-31.675781v-47.292969c-31.53125 2.757813-72.050781 17.085938-95.078125 67.46875zm0 0" fill="#9ea7af"/><path d="m170.945312 498.777344c7.121094 7.273437 21.292969 13.222656 31.5 13.222656h104.617188c10.207031 0 24.382812-5.949219 31.5-13.222656l6.511719-6.65625v-41.957032c0-33.285156-27.140625-60.265624-60.625-60.265624h-59.386719c-33.484375 0-60.625 26.980468-60.625 60.265624v41.957032zm0 0" fill="#48e5e1"/><path d="m196.035156 492.121094v-41.957032c0-33.285156 27.144532-60.265624 60.625-60.265624h-31.597656c-33.484375 0-60.625 26.980468-60.625 60.265624v41.957032l6.507812 6.65625c7.121094 7.273437 21.292969 13.222656 31.5 13.222656h31.601563c-10.210937 0-24.382813-5.949219-31.5-13.222656zm0 0" fill="#41ceca"/><g fill="#a2f9f9"><path d="m217.636719 444.136719c-4.140625 0-7.5-3.359375-7.5-7.5v-1.230469c0-4.144531 3.359375-7.5 7.5-7.5s7.5 3.355469 7.5 7.5v1.230469c0 4.140625-3.359375 7.5-7.5 7.5zm0 0"/><path d="m254.753906 444.136719c-4.140625 0-7.5-3.359375-7.5-7.5v-1.230469c0-4.144531 3.359375-7.5 7.5-7.5 4.144532 0 7.5 3.355469 7.5 7.5v1.230469c0 4.140625-3.355468 7.5-7.5 7.5zm0 0"/><path d="m291.871094 444.136719c-4.140625 0-7.5-3.359375-7.5-7.5v-1.230469c0-4.144531 3.359375-7.5 7.5-7.5 4.144531 0 7.5 3.355469 7.5 7.5v1.230469c0 4.140625-3.355469 7.5-7.5 7.5zm0 0"/></g><path d="m323.421875 0h-137.332031v5.535156c0 37.699219 30.742187 68.261719 68.664062 68.261719 37.925782 0 68.667969-30.5625 68.667969-68.261719zm0 0" fill="#48e5e1"/><path d="m210.832031 0v5.535156c0 24.074219 19.703125 43.664063 43.921875 43.664063s43.925782-19.589844 43.925782-43.664063v-5.535156zm0 0" fill="#a2f9f9"/><path d="m242.394531 5.535156v-5.535156h-31.5625v5.535156c0 24.074219 19.703125 43.664063 43.921875 43.664063 5.5625 0 10.878906-1.042969 15.78125-2.925781-16.441406-6.316407-28.140625-22.191407-28.140625-40.738282zm0 0" fill="#91e0e0"/><path d="m344.929688 223.242188c0-49.507813-40.371094-89.644532-90.175782-89.644532-49.800781 0-90.175781 40.136719-90.175781 89.644532 0 49.507812 40.375 89.640624 90.175781 89.640624 49.804688 0 90.175782-40.132812 90.175782-89.640624zm0 0" fill="#ffca51"/><path d="m196.035156 223.242188c0-44.175782 32.144532-80.886719 74.449219-88.28125-5.109375-.894532-10.363281-1.363282-15.730469-1.363282-49.800781 0-90.171875 40.136719-90.171875 89.644532 0 49.507812 40.371094 89.644531 90.171875 89.644531 5.367188 0 10.621094-.46875 15.730469-1.363281-42.304687-7.398438-74.449219-44.109376-74.449219-88.28125zm0 0" fill="#e5b549"/><path d="m254.753906 280.332031c-26.742187 0-48.5-21.652343-48.5-48.261719 0-4.144531 3.355469-7.5 7.5-7.5 4.140625 0 7.5 3.355469 7.5 7.5 0 18.339844 15.027344 33.261719 33.5 33.261719s33.503906-14.921875 33.503906-33.261719c0-4.144531 3.355469-7.5 7.5-7.5 4.140626 0 7.5 3.355469 7.5 7.5 0 26.609376-21.757812 48.261719-48.503906 48.261719zm0 0" fill="#775436"/><path d="m227.429688 207.371094c-4.140626 0-7.5-3.355469-7.5-7.5v-7.070313c0-4.140625 3.359374-7.5 7.5-7.5 4.140624 0 7.5 3.359375 7.5 7.5v7.070313c0 4.144531-3.359376 7.5-7.5 7.5zm0 0" fill="#775436"/><path d="m282.082031 207.371094c-4.144531 0-7.5-3.355469-7.5-7.5v-7.070313c0-4.140625 3.355469-7.5 7.5-7.5 4.140625 0 7.5 3.359375 7.5 7.5v7.070313c0 4.144531-3.359375 7.5-7.5 7.5zm0 0" fill="#775436"/><path d="m.5 6.148438v79.949218c0 3.394532 2.769531 6.148438 6.1875 6.148438h22.269531v-92.246094h-22.269531c-3.417969 0-6.1875 2.753906-6.1875 6.148438zm0 0" fill="#a2f9f9"/><path d="m502.824219 0h-22.269531v92.246094h22.269531c3.414062 0 6.183593-2.753906 6.183593-6.148438v-79.949218c0-3.394532-2.769531-6.148438-6.183593-6.148438zm0 0" fill="#a2f9f9"/></svg>