<svg id="Capa_1" enable-background="new 0 0 497 497" height="512" viewBox="0 0 497 497" width="512" xmlns="http://www.w3.org/2000/svg"><g><g><path d="m248.5 97c-1.617 0-3.227.031-4.833.079-86.129 2.565-155.167 73.425-155.167 160.472 0 58.268 69.092 157.164 116.47 218.13 11.045 14.213 27.288 21.319 43.53 21.319s32.485-7.106 43.53-21.319c47.378-60.967 116.47-159.862 116.47-218.13 0-88.67-71.635-160.551-160-160.551zm0 220.291c-15.275 0-29.747-2.744-42.696-7.643-33.87-12.814-57.304-40.394-57.304-72.357 0-37.005 31.409-68.136 74.06-77.276 8.273-1.773 16.967-2.724 25.94-2.724 55.229 0 100 35.817 100 80s-44.771 80-100 80z" fill="#5fd9b3"/><path d="m205.804 309.648c-33.87-12.814-57.304-40.394-57.304-72.357 0-37.005 31.409-68.136 74.06-77.276 5.64-21.3 12.675-42.324 21.107-62.935-86.129 2.564-155.167 73.424-155.167 160.471 0 58.268 69.092 157.164 116.47 218.13 11.045 14.213 27.288 21.319 43.53 21.319-26.186-59.842-40.413-123.434-42.696-187.352z" fill="#00ce8e"/></g><g><g fill="#00ce8e"><path d="m167.628.045c-15.803.568-28.515 13.28-29.083 29.083-.667 18.568 6.085 37.353 20.26 51.528 20.397 20.397 50.337 25.424 75.445 15.095 10.329-25.109 5.302-55.048-15.095-75.446-14.175-14.175-32.959-20.927-51.527-20.26z"/><path d="m358.455 29.128c-.567-15.802-13.28-28.515-29.083-29.083-18.568-.667-37.353 6.085-51.528 20.26-20.397 20.397-25.424 50.337-15.095 75.445 13.842 5.694 29.192 6.729 43.562 3.088 11.697-2.964 22.731-9.03 31.883-18.182 14.176-14.176 20.928-32.96 20.261-51.528z"/></g><g fill="#009d6b"><path d="m193.648 45.813c-2.93-2.929-7.678-2.929-10.607 0s-2.929 7.678 0 10.606l19.851 19.85c1.465 1.464 3.385 2.197 5.304 2.197s3.839-.732 5.304-2.197c2.929-2.929 2.929-7.678 0-10.606z"/><path d="m313.959 45.813c-2.93-2.929-7.678-2.929-10.607 0l-19.853 19.853c-2.929 2.929-2.929 7.678 0 10.606 1.465 1.464 3.385 2.197 5.304 2.197s3.839-.732 5.304-2.197l19.853-19.853c2.928-2.928 2.928-7.677-.001-10.606z"/></g><path d="m305.5 111.272c0-1.946-.098-3.869-.288-5.764-2.89-28.773-27.178-51.236-56.712-51.236-31.48 0-57 25.52-57 57s25.52 57 57 57 57-25.52 57-57z" fill="#5fd9b3"/></g><g><g><g><g><ellipse cx="173.943" cy="374.063" fill="#ff8e9e" rx="29.355" ry="23.377"/></g><g><ellipse cx="323.057" cy="374.063" fill="#ff8e9e" rx="29.355" ry="23.377"/></g></g></g><g fill="#313d40"><path d="m186.051 332.06c-4.143 0-7.5 3.358-7.5 7.5v12c0 4.142 3.357 7.5 7.5 7.5s7.5-3.358 7.5-7.5v-12c0-4.142-3.358-7.5-7.5-7.5z"/><path d="m310.948 332.06c-4.143 0-7.5 3.358-7.5 7.5v12c0 4.142 3.357 7.5 7.5 7.5s7.5-3.358 7.5-7.5v-12c0-4.142-3.357-7.5-7.5-7.5z"/><path d="m269.892 345.549c-3.125-2.721-7.862-2.396-10.582.727-2.729 3.132-6.669 4.928-10.81 4.928s-8.08-1.796-10.81-4.928c-2.722-3.122-7.46-3.447-10.582-.727-3.122 2.722-3.448 7.459-.727 10.582 5.579 6.401 13.641 10.073 22.118 10.073s16.539-3.671 22.118-10.073c2.723-3.123 2.397-7.86-.725-10.582z"/></g></g></g></svg>