<svg id="Capa_1" enable-background="new 0 0 328.732 328.732" height="512" viewBox="0 0 328.732 328.732" width="512" xmlns="http://www.w3.org/2000/svg"><g><path d="m309.905 105.582-23.093-53.715h-101.806-39.969-103.413l-22.797 53.673-16.199 38.193 69.449 150.487h72.96 39.969 72.96l67.673-151.206z" fill="#e56353"/><path d="m2.628 143.733 69.449 150.487h42.296c5.921-26.815 2.834-64.289-13.915-101.509-19.879-44.326-53.842-76.47-81.631-87.171z" fill="#e56353"/><path d="m82.736 289.779c-27.238 4.018-44.58-42.296-52.489-62.471-5.033-13.027-8.459-26.562-13.027-39.758-4.23-11.97-12.689-27.534-6.64-40.392 1.407-2.933 1.634-6.294.634-9.39 18.652-4.779 47.413 22.374 65.6 63.02 17.341 38.617 19.414 76.049 5.922 88.991z" fill="#d15241"/><path d="m23.733 224.475c19.118 42.676 35.824 76.936 54.35 68.646 5.978-3.217 10.2-8.945 11.504-15.607-14.592-5.414-28.465-34.429-43.945-68.942-13.112-29.142-24.024-54.604-23.686-70.507-4.396-1.414-9.153-1.204-13.408.592-18.482 8.29-4.017 43.142 15.185 85.818z" fill="#d15241"/><path d="m326.104 143.817-69.449 150.488h-42.295c-5.921-26.815-2.834-64.289 13.915-101.509 19.879-44.326 53.842-76.47 81.631-87.171z" fill="#e56353"/><path d="m245.997 289.864c27.238 4.23 44.58-42.296 52.489-62.471 5.033-13.027 8.459-26.562 13.027-39.758 4.23-12.012 12.689-27.534 6.64-40.392-1.407-2.933-1.634-6.294-.634-9.39-18.652-4.779-47.413 22.29-65.601 63.02-17.341 38.617-19.414 76.048-5.921 88.991z" fill="#d15241"/><path d="m304.999 224.56c-19.118 42.634-35.824 76.936-54.35 68.603-5.984-3.19-10.211-8.908-11.504-15.565 14.592-5.414 28.465-34.471 43.945-68.984 13.112-29.099 24.024-54.561 23.686-70.464 4.391-1.428 9.148-1.232 13.408.55 18.482 8.289 4.017 43.183-15.185 85.86z" fill="#d15241"/><path d="m289.18 43.492c-.46-5.194-4.81-9.177-10.024-9.178h-230.764c-5.214.002-9.564 3.984-10.024 9.178l-.339 16.918h252.674z" fill="#d15241"/><g fill="#ebf0f3"><path d="m70.554 70.604c-3.854 0-6.979 3.125-6.979 6.979s3.125 6.979 6.979 6.979 6.979-3.124 6.979-6.979c.023-3.831-3.063-6.955-6.894-6.979-.028-.001-.056-.001-.085 0z"/><path d="m105.533 104.144c-3.854 0-6.979 3.125-6.979 6.979s3.125 6.979 6.979 6.979 6.979-3.124 6.979-6.979c.023-3.831-3.063-6.955-6.894-6.979-.028 0-.057 0-.085 0z"/><circle cx="94.705" cy="145.678" r="6.979"/><path d="m124.101 166.065c-3.854 0-6.979 3.125-6.979 6.979s3.124 6.979 6.979 6.979c3.854 0 6.979-3.125 6.979-6.979-.001-3.855-3.125-6.979-6.979-6.979z"/><path d="m184.414 171.225c-3.854 0-6.979 3.124-6.979 6.979 0 3.854 3.125 6.979 6.979 6.979s6.979-3.124 6.979-6.979c.023-3.831-3.063-6.955-6.894-6.979-.028 0-.056 0-.085 0z"/><path d="m200.36 213.647c-3.843.3-6.715 3.658-6.415 7.5.267 3.426 2.989 6.147 6.415 6.415 3.843.3 7.201-2.572 7.5-6.415.3-3.843-2.572-7.201-6.415-7.5-.361-.028-.724-.028-1.085 0z"/><path d="m157.134 196.771c-3.843.3-6.715 3.658-6.415 7.5.267 3.426 2.989 6.147 6.415 6.415 3.843.3 7.201-2.572 7.5-6.415.3-3.843-2.572-7.201-6.415-7.5-.361-.028-.724-.028-1.085 0z"/><path d="m131.629 219.061c-3.854-.023-6.998 3.082-7.021 6.936s3.082 6.998 6.936 7.021 6.998-3.082 7.021-6.936c0-.014 0-.028 0-.042.001-3.838-3.098-6.956-6.936-6.979z"/><circle cx="171.599" cy="245.369" r="6.979"/><path d="m140.681 265.629c-3.843.3-6.715 3.658-6.415 7.5.267 3.426 2.989 6.147 6.415 6.415 3.843.3 7.201-2.572 7.5-6.415.3-3.843-2.572-7.201-6.415-7.5-.361-.029-.724-.029-1.085 0z"/><path d="m184.414 272.565c-3.854 0-6.979 3.124-6.979 6.979 0 3.854 3.125 6.979 6.979 6.979s6.979-3.125 6.979-6.979c.023-3.831-3.063-6.955-6.894-6.979-.028 0-.056 0-.085 0z"/><path d="m140.427 112.518c-3.854.023-6.96 3.167-6.936 7.021.023 3.854 3.167 6.96 7.021 6.936 3.838-.023 6.936-3.141 6.936-6.979.024-3.831-3.063-6.956-6.894-6.979-.042.001-.085.001-.127.001z"/><path d="m178.577 107.401c-3.843-.3-7.201 2.572-7.5 6.415-.3 3.843 2.572 7.201 6.415 7.5.361.028.724.028 1.086 0 3.843-.3 6.715-3.658 6.415-7.5-.268-3.427-2.99-6.148-6.416-6.415z"/><path d="m157.134 144.113c-3.854 0-6.979 3.124-6.979 6.979 0 3.854 3.124 6.979 6.979 6.979 3.854 0 6.979-3.125 6.979-6.979.023-3.831-3.063-6.955-6.894-6.979-.029 0-.057 0-.085 0z"/><path d="m207.338 137.177c-3.854 0-6.979 3.125-6.979 6.979s3.125 6.979 6.979 6.979 6.979-3.125 6.979-6.979c0-.014 0-.028 0-.042 0-3.831-3.105-6.937-6.936-6.937-.014 0-.028 0-.043 0z"/><path d="m222.438 164.373c-3.854-.023-6.998 3.082-7.021 6.936s3.082 6.998 6.936 7.021 6.998-3.082 7.021-6.936c0-.014 0-.028 0-.042.001-3.838-3.098-6.956-6.936-6.979z"/><circle cx="214.317" cy="109.346" r="6.979"/><circle cx="246.124" cy="80.331" r="6.979"/><ellipse cx="112.512" cy="81.473" rx="6.979" ry="6.979" transform="matrix(.16 -.987 .987 .16 14.068 179.482)"/><path d="m152.1 74.495c-3.854 0-6.979 3.125-6.979 6.979s3.124 6.979 6.979 6.979 6.979-3.124 6.979-6.979c.023-3.831-3.063-6.955-6.894-6.979-.028 0-.056 0-.085 0z"/><path d="m200.36 72.549c-3.854 0-6.979 3.125-6.979 6.979s3.125 6.979 6.979 6.979 6.979-3.124 6.979-6.979c.023-3.831-3.063-6.955-6.894-6.979-.029 0-.057 0-.085 0z"/><circle cx="253.102" cy="119.497" r="6.979"/><path d="m280.637 84.561c-3.854 0-6.979 3.125-6.979 6.979s3.125 6.979 6.979 6.979 6.979-3.125 6.979-6.979c0-.014 0-.028 0-.042 0-3.831-3.105-6.937-6.936-6.937-.015 0-.029 0-.043 0z"/><circle cx="66.832" cy="114.379" r="6.979"/><path d="m41.709 84.561c-3.854 0-6.979 3.125-6.979 6.979s3.125 6.979 6.979 6.979 6.979-3.125 6.979-6.979c0-.014 0-.028 0-.042 0-3.831-3.105-6.937-6.936-6.937-.015 0-.029 0-.043 0z"/></g></g></svg>