<svg height="469pt" viewBox="-21 0 469 469.33334" width="469pt" xmlns="http://www.w3.org/2000/svg"><path d="m85.5 362.667969c35.347656 0 64 28.652343 64 64v21.332031h128v-21.332031c0-35.347657 28.652344-64 64-64v-21.335938h-256zm0 0" fill="#b4e7f0"/><path d="m341.5 21.332031-42.667969-21.332031h-21.332031s-21.332031 21.332031-64 21.332031-63.109375-21.332031-63.109375-21.332031h-22.222656l-42.667969 21.332031-85.332031 42.667969 21.332031 85.332031h42.667969c11.78125 0 21.332031 9.550781 21.332031 21.335938v192c47.128906 0 85.332031 38.203125 85.332031 85.332031h85.335938c0-47.128906 38.203125-85.332031 85.332031-85.332031v-192c0-11.785157 9.550781-21.335938 21.332031-21.335938h42.667969l21.332031-85.332031zm0 0" fill="#5bcade"/><path d="m64.167969 128h-21.335938v-21.332031h21.335938v-74.667969h21.332031v74.667969c-.015625 11.773437-9.558594 21.316406-21.332031 21.332031zm0 0" fill="#b4e7f0"/><path d="m25.011719 75.425781-5.296875-21.199219-19.546875 9.773438 21.332031 85.332031h21.988281l-5.332031-21.332031zm0 0" fill="#f9578f"/><path d="m401.988281 75.425781 5.296875-21.199219 19.546875 9.773438-21.332031 85.332031h-21.988281l5.332031-21.332031zm0 0" fill="#f73478"/><path d="m213.5 106.667969c-46.917969.191406-88.390625-30.449219-101.988281-75.355469l20.394531-6.25c11.019531 35.824219 44.113281 60.269531 81.59375 60.269531s70.574219-24.445312 81.59375-60.269531l20.394531 6.25c-13.589843 44.910156-55.070312 75.554688-101.988281 75.355469zm0 0" fill="#27b9d4"/><path d="m213.5 106.667969v-21.335938c37.535156.167969 70.71875-24.34375 81.59375-60.269531l20.394531 6.25c-13.589843 44.910156-55.070312 75.554688-101.988281 75.355469zm0 0" fill="#009fc2"/><path d="m320.167969 64c-20.160157.078125-39.164063-9.421875-51.199219-25.59375l17.0625-12.8125c8.019531 10.789062 20.691406 17.128906 34.136719 17.074219zm0 0" fill="#009fc2"/><path d="m106.832031 64v-21.332031c13.445313.054687 26.117188-6.285157 34.136719-17.074219l17.0625 12.8125c-12.035156 16.171875-31.039062 25.671875-51.199219 25.59375zm0 0" fill="#27b9d4"/><path d="m170.832031 384h85.335938v21.332031h-85.335938zm0 0" fill="#27b9d4"/><path d="m213.5 74.667969c41.238281 0 74.667969-33.429688 74.667969-74.667969h-10.667969s-21.332031 21.332031-64 21.332031-63.109375-21.332031-63.109375-21.332031h-11.558594c0 41.238281 33.429688 74.667969 74.667969 74.667969zm0 0" fill="#b4e7f0"/><path d="m106.832031 42.667969v-21.335938c11.777344-.015625 21.320313-9.554687 21.335938-21.332031h21.332031c-.023438 23.554688-19.113281 42.644531-42.667969 42.667969zm0 0" fill="#e41a67"/><path d="m320.167969 42.667969c-23.554688-.023438-42.644531-19.113281-42.667969-42.667969h21.332031c.015625 11.777344 9.558594 21.316406 21.335938 21.332031zm0 0" fill="#f73478"/><path d="m213.5 85.332031c-47.105469-.050781-85.28125-38.226562-85.332031-85.332031h21.332031c0 35.347656 28.652344 64 64 64s64-28.652344 64-64h21.332031c-.050781 47.105469-38.226562 85.28125-85.332031 85.332031zm0 0" fill="#f9578f"/><path d="m192.167969 448h-21.335938c-.050781-47.105469-38.226562-85.28125-85.332031-85.332031v-21.335938c58.882812.070313 106.597656 47.785157 106.667969 106.667969zm0 0" fill="#e41a67"/><path d="m256.167969 448h-21.335938c.070313-58.882812 47.785157-106.597656 106.667969-106.667969v21.335938c-47.105469.050781-85.28125 38.226562-85.332031 85.332031zm0 0" fill="#e41a67"/><path d="m234.832031 448h-21.332031c.078125-70.660156 57.339844-127.921875 128-128v21.332031c-58.882812.070313-106.597656 47.785157-106.667969 106.667969zm0 0" fill="#009fc2"/><path d="m213.5 448h-21.332031c-.070313-58.882812-47.785157-106.597656-106.667969-106.667969v-21.332031c70.660156.078125 127.921875 57.339844 128 128zm0 0" fill="#27b9d4"/><path d="m213.5 448h-21.332031c0-82.34375 66.988281-149.332031 149.332031-149.332031v21.332031c-70.660156.078125-127.921875 57.339844-128 128zm0 0" fill="#7cd5e5"/><path d="m149.5 448 21.332031-42.667969h85.335938l21.332031 42.667969s-22.167969 21.332031-64.417969 21.332031-63.582031-21.332031-63.582031-21.332031zm0 0" fill="#5bcade"/><path d="m192.167969 426.667969h64v21.332031h-64zm0 0" fill="#009fc2"/><path d="m170.058594 454.585938 3.492187-6.980469 10.46875-20.9375h58.960938l10.472656 20.9375 3.488281 6.980469 2.457032 4.910156c11.960937-5.59375 18.101562-11.496094 18.101562-11.496094l-21.332031-42.667969h-85.335938l-21.332031 42.667969s6.03125 6.03125 18.03125 11.679688zm0 0" fill="#f9578f"/><path d="m362.832031 149.332031c-23.554687-.023437-42.640625-19.109375-42.664062-42.664062v-85.335938h21.332031v85.335938c.015625 11.773437 9.558594 21.316406 21.332031 21.332031zm0 0" fill="#009fc2"/><path d="m64.167969 149.332031v-21.332031c11.773437-.015625 21.316406-9.558594 21.332031-21.332031v-85.335938h21.332031v85.335938c-.023437 23.554687-19.109375 42.640625-42.664062 42.664062zm0 0" fill="#27b9d4"/><path d="m170.832031 405.332031h21.335938v21.335938h-21.335938zm0 0" fill="#fb91b5"/><path d="m64.167969 74.667969c0 5.890625-4.777344 10.664062-10.667969 10.664062s-10.667969-4.773437-10.667969-10.664062 4.777344-10.667969 10.667969-10.667969 10.667969 4.777344 10.667969 10.667969zm0 0" fill="#b4e7f0"/><path d="m149.5 74.667969c0 5.890625-4.777344 10.664062-10.667969 10.664062s-10.664062-4.773437-10.664062-10.664062 4.773437-10.667969 10.664062-10.667969 10.667969 4.777344 10.667969 10.667969zm0 0" fill="#7cd5e5"/><g fill="#b4e7f0"><path d="m106.832031 160c0 5.890625-4.773437 10.667969-10.664062 10.667969s-10.667969-4.777344-10.667969-10.667969 4.777344-10.667969 10.667969-10.667969 10.664062 4.777344 10.664062 10.667969zm0 0"/><path d="m128.167969 202.667969c0 5.890625-4.777344 10.664062-10.667969 10.664062s-10.667969-4.773437-10.667969-10.664062 4.777344-10.667969 10.667969-10.667969 10.667969 4.777344 10.667969 10.667969zm0 0"/><path d="m149.5 245.332031c0 5.890625-4.777344 10.667969-10.667969 10.667969s-10.664062-4.777344-10.664062-10.667969 4.773437-10.664062 10.664062-10.664062 10.667969 4.773437 10.667969 10.664062zm0 0"/><path d="m192.167969 245.332031c0 5.890625-4.777344 10.667969-10.667969 10.667969s-10.667969-4.777344-10.667969-10.667969 4.777344-10.664062 10.667969-10.664062 10.667969 4.773437 10.667969 10.664062zm0 0"/><path d="m170.832031 288c0 5.890625-4.773437 10.667969-10.664062 10.667969s-10.667969-4.777344-10.667969-10.667969 4.777344-10.667969 10.667969-10.667969 10.664062 4.777344 10.664062 10.667969zm0 0"/><path d="m213.5 117.332031c0 5.890625-4.777344 10.667969-10.667969 10.667969s-10.664062-4.777344-10.664062-10.667969 4.773437-10.664062 10.664062-10.664062 10.667969 4.773437 10.667969 10.664062zm0 0"/><path d="m213.5 288c0 5.890625-4.777344 10.667969-10.667969 10.667969s-10.664062-4.777344-10.664062-10.667969 4.773437-10.667969 10.664062-10.667969 10.667969 4.777344 10.667969 10.667969zm0 0"/><path d="m213.5 458.667969c0 5.890625-4.777344 10.664062-10.667969 10.664062s-10.664062-4.773437-10.664062-10.664062 4.773437-10.667969 10.664062-10.667969 10.667969 4.777344 10.667969 10.667969zm0 0"/><path d="m192.167969 330.667969c0 5.890625-4.777344 10.664062-10.667969 10.664062s-10.667969-4.773437-10.667969-10.664062 4.777344-10.667969 10.667969-10.667969 10.667969 4.777344 10.667969 10.667969zm0 0"/></g><path d="m106.832031 330.667969c0 5.890625-4.773437 10.664062-10.664062 10.664062s-10.667969-4.773437-10.667969-10.664062 4.777344-10.667969 10.667969-10.667969 10.664062 4.777344 10.664062 10.667969zm0 0" fill="#7cd5e5"/><path d="m234.832031 330.667969c0 5.890625-4.773437 10.664062-10.664062 10.664062s-10.667969-4.773437-10.667969-10.664062 4.777344-10.667969 10.667969-10.667969 10.664062 4.777344 10.664062 10.667969zm0 0" fill="#b4e7f0"/><path d="m320.167969 330.667969c0 5.890625-4.777344 10.664062-10.667969 10.664062s-10.667969-4.773437-10.667969-10.664062 4.777344-10.667969 10.667969-10.667969 10.667969 4.777344 10.667969 10.667969zm0 0" fill="#5bcade"/><path d="m128.167969 288c0 5.890625-4.777344 10.667969-10.667969 10.667969s-10.667969-4.777344-10.667969-10.667969 4.777344-10.667969 10.667969-10.667969 10.667969 4.777344 10.667969 10.667969zm0 0" fill="#b4e7f0"/><path d="m106.832031 245.332031c0 5.890625-4.773437 10.667969-10.664062 10.667969s-10.667969-4.777344-10.667969-10.667969 4.777344-10.664062 10.667969-10.664062 10.664062 4.773437 10.664062 10.664062zm0 0" fill="#b4e7f0"/><path d="m277.5 245.332031c0 5.890625-4.777344 10.667969-10.667969 10.667969s-10.664062-4.777344-10.664062-10.667969 4.773437-10.664062 10.664062-10.664062 10.667969 4.773437 10.667969 10.664062zm0 0" fill="#7cd5e5"/><path d="m320.167969 245.332031c0 5.890625-4.777344 10.667969-10.667969 10.667969s-10.667969-4.777344-10.667969-10.667969 4.777344-10.664062 10.667969-10.664062 10.667969 4.773437 10.667969 10.664062zm0 0" fill="#7cd5e5"/><path d="m341.5 202.667969c0 5.890625-4.777344 10.664062-10.667969 10.664062s-10.664062-4.773437-10.664062-10.664062 4.773437-10.667969 10.664062-10.667969 10.667969 4.777344 10.667969 10.667969zm0 0" fill="#7cd5e5"/><path d="m256.167969 288c0 5.890625-4.777344 10.667969-10.667969 10.667969s-10.667969-4.777344-10.667969-10.667969 4.777344-10.667969 10.667969-10.667969 10.667969 4.777344 10.667969 10.667969zm0 0" fill="#7cd5e5"/><path d="m256.167969 373.332031c0 5.890625-4.777344 10.667969-10.667969 10.667969s-10.667969-4.777344-10.667969-10.667969 4.777344-10.664062 10.667969-10.664062 10.667969 4.773437 10.667969 10.664062zm0 0" fill="#5bcade"/><path d="m298.832031 202.667969c0 5.890625-4.773437 10.664062-10.664062 10.664062s-10.667969-4.773437-10.667969-10.664062 4.777344-10.667969 10.667969-10.667969 10.664062 4.777344 10.664062 10.667969zm0 0" fill="#7cd5e5"/><path d="m286.335938 140.496094c-12.203126-12.203125-30.554688-15.851563-46.496094-9.25-15.945313 6.605468-26.339844 22.164062-26.339844 39.421875 0-19.3125-12.972656-36.214844-31.625-41.214844-18.652344-4.996094-38.335938 3.15625-47.992188 19.878906-9.65625 16.726563-6.875 37.851563 6.78125 51.503907 8.332032 8.332031 72.835938 76.496093 72.835938 76.496093s64.503906-68.164062 72.835938-76.496093c16.664062-16.660157 16.664062-43.675782 0-60.339844zm0 0" fill="#f9578f"/><path d="m286.332031 140.5c-16.664062-16.644531-43.664062-16.644531-60.332031 0-.359375.359375-.609375.789062-.953125 1.160156-1.625 1.6875-3.113281 3.511719-4.445313 5.441406-.613281.921876-1.019531 1.945313-1.554687 2.90625-.875 1.445313-1.664063 2.945313-2.363281 4.488282-.488282 1.363281-.910156 2.753906-1.257813 4.160156-.367187 1.246094-.859375 2.464844-1.109375 3.734375-.535156 2.726563-.804687 5.5-.804687 8.277344h21.332031c-.003906-8.628907 5.191406-16.410157 13.160156-19.710938 7.972656-3.304687 17.148438-1.476562 23.246094 4.625 4.011719 4.046875 6.246094 9.519531 6.210938 15.21875-.035157 5.695313-2.339844 11.140625-6.398438 15.136719l-72.230469 75.910156c8.609375 9.082032 14.667969 15.484375 14.667969 15.484375s63.542969-67.144531 72.589844-76.246093l.242187-.253907c16.636719-16.667969 16.636719-43.660156 0-60.332031zm0 0" fill="#f73478"/><path d="m298.832031 288c0 5.890625-4.773437 10.667969-10.664062 10.667969s-10.667969-4.777344-10.667969-10.667969 4.777344-10.667969 10.667969-10.667969 10.664062 4.777344 10.664062 10.667969zm0 0" fill="#7cd5e5"/><path d="m341.5 288c0 5.890625-4.777344 10.667969-10.667969 10.667969s-10.664062-4.777344-10.664062-10.667969 4.773437-10.667969 10.664062-10.667969 10.667969 4.777344 10.667969 10.667969zm0 0" fill="#7cd5e5"/><path d="m320.167969 160c0 5.890625-4.777344 10.667969-10.667969 10.667969s-10.667969-4.777344-10.667969-10.667969 4.777344-10.667969 10.667969-10.667969 10.667969 4.777344 10.667969 10.667969zm0 0" fill="#7cd5e5"/><path d="m298.832031 117.332031c0 5.890625-4.773437 10.667969-10.664062 10.667969s-10.667969-4.777344-10.667969-10.667969 4.777344-10.664062 10.667969-10.664062 10.664062 4.773437 10.664062 10.664062zm0 0" fill="#7cd5e5"/><path d="m384.167969 53.332031c0 5.890625-4.777344 10.667969-10.667969 10.667969s-10.667969-4.777344-10.667969-10.667969 4.777344-10.664062 10.667969-10.664062 10.667969 4.773437 10.667969 10.664062zm0 0" fill="#7cd5e5"/><path d="m362.832031 96c0 5.890625-4.773437 10.667969-10.664062 10.667969s-10.667969-4.777344-10.667969-10.667969 4.777344-10.667969 10.667969-10.667969 10.664062 4.777344 10.664062 10.667969zm0 0" fill="#7cd5e5"/><path d="m256.167969 117.332031c0 5.890625-4.777344 10.667969-10.667969 10.667969s-10.667969-4.777344-10.667969-10.667969 4.777344-10.664062 10.667969-10.664062 10.667969 4.773437 10.667969 10.664062zm0 0" fill="#7cd5e5"/><path d="m320.167969 74.667969c0 5.890625-4.777344 10.664062-10.667969 10.664062s-10.667969-4.773437-10.667969-10.664062 4.777344-10.667969 10.667969-10.667969 10.667969 4.777344 10.667969 10.667969zm0 0" fill="#7cd5e5"/><path d="m170.832031 117.332031c0 5.890625-4.773437 10.667969-10.664062 10.667969s-10.667969-4.777344-10.667969-10.667969 4.777344-10.664062 10.667969-10.664062 10.664062 4.773437 10.664062 10.664062zm0 0" fill="#b4e7f0"/><path d="m192.167969 170.667969c0 11.78125-9.550781 21.332031-21.335938 21.332031-11.78125 0-21.332031-9.550781-21.332031-21.332031 0-11.785157 9.550781-21.335938 21.332031-21.335938 11.785157 0 21.335938 9.550781 21.335938 21.335938zm0 0" fill="#fcafc9"/><path d="m298.832031 64h21.335938v64h-21.335938zm0 0" fill="#7cd5e5"/></svg>