<svg id="Layer_3" enable-background="new 0 0 64 64" height="512" viewBox="0 0 64 64" width="512" xmlns="http://www.w3.org/2000/svg"><g><path d="m39 13-.9.225h-12.2l-.9-.225-1 5v5h16v-7z" fill="#e2b55a"/><g><g><path d="m32.999 9.999h-2v-4c0-.552.448-1 1-1h.107c.493 0 .893-.4.893-.893 0-.537-.362-1.017-.825-1.093-.305-.049-.596.03-.823.224-.224.19-.353.468-.353.762h-2c0-.881.385-1.714 1.057-2.286.671-.571 1.561-.816 2.44-.674 1.427.232 2.504 1.551 2.504 3.067 0 1.284-.84 2.375-2 2.752z" fill="#d08e7a"/></g><path d="m31.999 15c1.312 0 2.604.329 3.756.958l7.726 4.214c.997.543 2.114.828 3.249.828.702 0 1.27-.569 1.27-1.27 0-.452-.24-.87-.63-1.097l-9.983-5.824c-.913-.532-1.692-1.266-2.278-2.145-.693-1.04-1.86-1.664-3.11-1.664-1.25 0-2.416.624-3.11 1.664-.586.879-1.365 1.613-2.278 2.145l-9.983 5.824c-.39.228-.63.646-.63 1.097 0 .702.569 1.27 1.27 1.27 1.135 0 2.252-.285 3.248-.828l7.726-4.214c1.153-.629 2.445-.958 3.757-.958z" fill="#a44b2f"/><path d="m47.37 18.632-9.983-5.824c-.913-.532-1.692-1.266-2.278-2.145-.15-.225-.326-.427-.517-.611-.195-.031-.392-.053-.592-.053-1.25 0-2.416.624-3.11 1.664-.586.879-1.365 1.613-2.278 2.145l-9.983 5.824c-.39.228-.63.646-.63 1.097 0 .079.031.147.045.222.865-.099 1.705-.361 2.474-.78l7.726-4.214c1.151-.628 2.443-.957 3.755-.957s2.604.329 3.756.958l7.726 4.214c.997.543 2.114.828 3.249.828.702 0 1.27-.569 1.27-1.27 0-.452-.24-.87-.63-1.098z" fill="#c7644a"/></g><path d="m32 62c2.642 0 5.261-.504 7.714-1.486l1.286-.514c0-4.393 2.122-8.516 5.697-11.07l1.303-.93c-1.328-5.313-2-10.769-2-16.246v-1.754l6 2 5-12-18-7-.337 3.037c-.378 3.395-3.247 5.963-6.663 5.963-3.416 0-6.285-2.568-6.663-5.963l-.337-3.037-18 7 5 12 6-2v1.754c0 5.477-.672 10.933-2 16.246l1.303.93c3.575 2.554 5.697 6.677 5.697 11.07l1.283.513c2.455.982 5.074 1.487 7.717 1.487z" fill="#f9cb66"/><path d="m38.663 16.037c-.378 3.395-3.247 5.963-6.663 5.963s-6.285-2.568-6.663-5.963l-.337-3.037-3.923 1.526.164 3.291c.749 14.989 9.434 27.944 22.054 34.627.901-1.349 2.045-2.545 3.401-3.513l1.304-.931c-1.328-5.313-2-10.769-2-16.246v-1.754l6 2 5-12-18-7z" fill="#ffd992"/><g><path d="m19 30h-2v-.838c0-1.989-.319-3.956-.948-5.846l1.896-.633c.698 2.094 1.052 4.274 1.052 6.479z" fill="#e2b55a"/></g><g><path d="m47 30h-2v-.838c0-2.205.354-4.385 1.052-6.479l1.896.633c-.629 1.89-.948 3.857-.948 5.846z" fill="#e2b55a"/></g><path d="m23.564 49.947c1.387-.264 2.436-1.483 2.436-2.947 0-1.657-1.343-3-3-3-1.358 0-2.505.902-2.875 2.139" fill="#84aa1b"/><path d="m37.888 55.184c-.356-1.26-1.514-2.184-2.888-2.184-1.657 0-3 1.343-3 3s1.343 3 3 3c.886 0 1.683-.384 2.232-.995" fill="#84aa1b"/><circle cx="35" cy="41" fill="#8fbe1f" r="3"/><circle cx="25" cy="31" fill="#84aa1b" r="3"/><path d="m46.242 15.816c-.156.364-.242.764-.242 1.184 0 1.657 1.343 3 3 3 1.31 0 2.424-.839 2.833-2.01" fill="#8fbe1f"/><path d="m10.299 27.918c.225.053.46.082.701.082 1.657 0 3-1.343 3-3s-1.343-3-3-3c-1.087 0-2.039.578-2.565 1.444" fill="#84aa1b"/><path d="m32 24.999c5.059.001 9.246-3.933 9.561-8.982l.123-1.973-2.684-1.044-.337 3.037c-.378 3.395-3.247 5.963-6.663 5.963s-6.285-2.568-6.663-5.963l-.337-3.037-2.685 1.044.123 1.973c.316 5.049 4.503 8.983 9.562 8.982z" fill="#d8e1ef"/><path d="m16.888 43.908-.001-.001c-.253 1.373-.548 2.738-.887 4.093l1.303.93c3.575 2.554 5.697 6.677 5.697 11.07l1.283.513c.885.354 1.796.623 2.716.852l.001-.365c0-7.168-3.924-13.696-10.112-17.092z" fill="#c2d0e8"/><path d="m37 61v.365c.92-.228 1.83-.497 2.714-.851l1.286-.514c0-4.393 2.122-8.516 5.697-11.07l1.303-.93c-.339-1.355-.634-2.72-.887-4.092h-.001c-6.188 3.396-10.112 9.924-10.112 17.092z" fill="#c2d0e8"/><path d="m47.112 43.908c-2.914 1.599-5.317 3.899-7.054 6.627 1.047.683 2.127 1.32 3.238 1.908.901-1.349 2.045-2.545 3.401-3.513l1.303-.93c-.339-1.355-.634-2.72-.887-4.092z" fill="#d8e1ef"/><g fill="#8fbe1f"><path d="m42 33c0 1.657 1.343 3 3 3 .396 0 .775-.077 1.121-.217l.001-.001c-.08-1.34-.122-2.683-.122-4.028v-1.583c-.313-.111-.649-.171-1-.171-1.657 0-3 1.343-3 3z"/><path d="m23.224 28.593c.602 1.85 1.339 3.638 2.184 5.365 1.462-.2 2.592-1.441 2.592-2.958 0-1.657-1.343-3-3-3-.667 0-1.277.225-1.776.593z"/></g></g></svg>