<svg height="512" viewBox="0 0 58 45" width="512" xmlns="http://www.w3.org/2000/svg"><g id="Page-1" fill="none" fill-rule="evenodd"><g id="008---Boxer-Briefs" fill-rule="nonzero"><path id="Shape" d="m56 11s2 7 2 12v19c-4.0797022 1.8869049-8.506006 2.9083597-13 3-3.6923521.074118-7.3815438-.261263-11-1l-1.58-5.52h-6.84l-1.58 5.52c-3.6184562.738737-7.3076479 1.074118-11 1-4.49399403-.0916403-8.9202978-1.1130951-13-3v-19c0-5 2-12 2-12z" fill="#e64c3c"/><g fill="#c03a2b"><path id="Shape" d="m29 40c-4.8337421.2702804-9.1141103-3.0965998-9.99-7.858-.0507317-.3536929.0910832-.7075837.3720244-.9283651.2809412-.2207815.6583271-.2749116.99-.142.3316729.1329115.5672439.4326722.6179756.7863651.037.242 1.01 6.142 8.01 6.142s7.973-5.9 8.011-6.145c.0876005-.5384816.5906334-.9073772 1.1305459-.8290776.5399124.0782996.9174295.5748949.8484541 1.1160776-.8758897 4.7614002-5.1562579 8.1282804-9.99 7.858z"/><path id="Shape" d="m19 28c-.4881196-.0006315-.9044606-.3535703-.985-.835-.5825444-3.8292922-.9149153-7.6924785-.995-11.565-.0140833-.5522847.4222153-1.0114167.9745-1.0255.5522847-.0140832 1.0114167.4222153 1.0255.9745.0765609 3.7806457.3992437 7.552293.966 11.291.0436615.2616405-.0184186.5299086-.1725792.745771-.1541607.2158624-.3877697.361631-.6494208.405229-.0542927.0078466-.1091747.0108584-.164.009z"/><path id="Shape" d="m39 28c-.0553075.0002649-.1105278-.0044204-.165-.014-.2616511-.043598-.4952601-.1893666-.6494208-.405229-.1541606-.2158624-.2162407-.4841305-.1725792-.745771.5681072-3.7366945.8874764-7.5069874.956-11.286.0299047-.5436701.4755609-.9714127 1.02-.979.2652338.0052516.5175117.1156791.7013087.3069779.1837969.1912989.284049.4477904.2786913.7130221-.0716451 3.8758494-.400367 7.7426751-.984 11.575-.0805394.4814297-.4968804.8343685-.985.835z"/></g><path id="Shape" d="m2 5v6c0 2.761 12.088 5 27 5s27-2.239 27-5v-6z" fill="#3f5c6c"/><ellipse id="Oval" cx="29" cy="8" fill="#2c3e50" rx="21.6" ry="2"/><path id="Shape" d="m56 5c0 1.13-2.01 2.16-5.4 3-4.93-1.21-12.77-2-21.6-2s-16.67.79-21.6 2c-3.39-.84-5.4-1.87-5.4-3 0-2.76 12.09-5 27-5s27 2.24 27 5z" fill="#35495e"/></g></g></svg>