<?xml version="1.0" encoding="iso-8859-1"?>
<!-- Generator: Adobe Illustrator 19.0.0, SVG Export Plug-In . SVG Version: 6.00 Build 0)  -->
<svg version="1.1" id="Capa_1" xmlns="http://www.w3.org/2000/svg" xmlns:xlink="http://www.w3.org/1999/xlink" x="0px" y="0px"
	 viewBox="0 0 464 464" style="enable-background:new 0 0 464 464;" xml:space="preserve">
<path style="fill:#919191;" d="M368,29.996l-16,32v40h-40l-15.12-30.32c-0.588-1.136-1.096-2.313-1.52-3.52l-0.8-2.56
	c-0.95-2.782-1.437-5.701-1.44-8.64c0-14.89,12.07-26.96,26.96-26.96c0.027,0,0.053,0,0.08,0L368,29.996z"/>
<g>
	<path style="fill:#454545;" d="M376,101.996l88,112l-32,112l-32-8l16-88l-48-64l-8,104l8,56H264l8-56l-8-96l-48,40l-8,104h-32v-120
		l80-88l24-8l-8-16l-9.28-18.64c-3.2-6.382-4.871-13.421-4.88-20.56c0.018-2.546,0.232-5.087,0.64-7.6
		c3.316-19.775,19.035-35.137,38.88-38l5.2-0.72c11.226-1.621,22.654,0.972,32.08,7.28L368,29.996h-47.84
		c-14.863-0.071-26.969,11.92-27.041,26.783c-0.014,2.999,0.473,5.979,1.441,8.817l0.8,2.56c0.424,1.207,0.932,2.383,1.52,3.52
		l15.12,30.32H376z"/>
	<path style="fill:#454545;" d="M16,151.996l-16,176v136h40l8-136l24-104l8,112l24,128h40l-16-128l16-120l-8-64H16z"/>
</g>
<g>
</g>
<g>
</g>
<g>
</g>
<g>
</g>
<g>
</g>
<g>
</g>
<g>
</g>
<g>
</g>
<g>
</g>
<g>
</g>
<g>
</g>
<g>
</g>
<g>
</g>
<g>
</g>
<g>
</g>
</svg>
