<?xml version="1.0" encoding="iso-8859-1"?>
<!-- Generator: Adobe Illustrator 17.1.0, SVG Export Plug-In . SVG Version: 6.00 Build 0)  -->
<!DOCTYPE svg PUBLIC "-//W3C//DTD SVG 1.1//EN" "http://www.w3.org/Graphics/SVG/1.1/DTD/svg11.dtd">
<svg version="1.1" id="Capa_1" xmlns="http://www.w3.org/2000/svg" xmlns:xlink="http://www.w3.org/1999/xlink" x="0px" y="0px"
	 viewBox="0 0 213.552 213.552" style="enable-background:new 0 0 213.552 213.552;" xml:space="preserve">
<path d="M151.141,213.552H77.524c-1.381,0-2.5-1.119-2.5-2.5v-20.773H66.15c-1.381,0-2.5-1.119-2.5-2.5v-70.515H31.932
	c-4.655,0-8.57-2.868-9.975-7.307c-1.405-4.438,0.148-9.037,3.956-11.715l78.557-55.249V31.179c0-1.343,1.062-2.446,2.403-2.498
	c0.547-0.024,13.537-0.72,13.537-11.842C120.411,6.434,113.951,5,106.97,5c-0.9,0.017-9.104,0.392-9.104,8.29
	c0,1.381-1.119,2.5-2.5,2.5s-2.5-1.119-2.5-2.5c0-10.402,9.209-13.242,14.079-13.29c12.261,0,18.465,5.666,18.465,16.839
	c0,11.281-9.382,15.585-15.94,16.601v9.827l78.168,54.976c3.808,2.678,5.361,7.277,3.956,11.715
	c-1.404,4.438-5.32,7.307-9.976,7.307h-27.978v93.788C153.641,212.433,152.522,213.552,151.141,213.552z M80.024,208.552h68.617
	v-91.288h-2.822v70.515c0,1.381-1.119,2.5-2.5,2.5H80.024V208.552z M68.65,185.279h72.169v-76.735H71.642
	c-1.51,0-2.763,1.124-2.964,2.58v3.641c0,0.128-0.01,0.254-0.028,0.377V185.279z M154.011,112.264h27.607
	c2.95,0,4.625-1.971,5.209-3.815c0.584-1.845,0.348-4.42-2.066-6.117l0,0l-77.985-54.848l-77.985,54.848
	c-2.414,1.697-2.65,4.273-2.066,6.117s2.258,3.815,5.208,3.815H63.65v-0.729c0-0.228,0.01-0.453,0.028-0.676v-0.927
	c0-3.533,2.874-6.408,6.407-6.408h69.354c0.112,0,0.224,0.007,0.333,0.019h4.083C148.993,103.543,153.261,107.333,154.011,112.264z
	 M145.819,112.264h2.589c-0.416-1.349-1.359-2.468-2.589-3.116V112.264z"/>
<g>
</g>
<g>
</g>
<g>
</g>
<g>
</g>
<g>
</g>
<g>
</g>
<g>
</g>
<g>
</g>
<g>
</g>
<g>
</g>
<g>
</g>
<g>
</g>
<g>
</g>
<g>
</g>
<g>
</g>
</svg>
