<svg id="Capa_1" enable-background="new 0 0 512 512" height="512" viewBox="0 0 512 512" width="512" xmlns="http://www.w3.org/2000/svg"><g><path d="m497.139 355.292-38.859-23.436c-3.532-2.13-8.123-.995-10.255 2.539-2.13 3.533-.993 8.124 2.54 10.255l38.858 23.436c4.711 2.841 7.637 8.023 7.637 13.524v21.174c0 .275-.224.498-.498.498-15.551 0-30.81-4.245-44.128-12.278l-188.974-113.976c-4.602-2.776-10.318-2.776-14.919 0l-188.975 113.976c-13.317 8.032-28.576 12.278-44.128 12.278-.275 0-.498-.223-.498-.498v-21.174c0-5.501 2.926-10.683 7.637-13.524l157.162-94.789c11.426-6.891 19.616-18.32 22.469-31.354l.285-1.302c3.377-15.426 17.289-26.623 33.081-26.623h41.214c15.883 0 29.691 11.154 33.081 26.614.283 12.012 6.777 23.246 17.091 29.467l95.102 57.359c3.533 2.13 8.124.994 10.254-2.539 2.131-3.533.995-8.124-2.539-10.255l-95.101-57.358c-6.092-3.675-9.877-10.377-9.877-17.491 0-.49-.048-.978-.144-1.459-4.531-22.76-24.662-39.279-47.868-39.279h-13.721v-18.093c21.558-3.668 37.086-22.485 36.429-44.616-.68-22.936-19.167-41.627-42.087-42.553-17.065-.704-33.117 8.672-40.907 23.851-1.884 3.67-.436 8.173 3.235 10.057 3.673 1.885 8.174.435 10.057-3.235 5.143-10.021 15.739-16.202 27.012-15.746 15.115.611 27.307 12.94 27.755 28.069.447 15.077-10.473 27.823-25.403 29.649-6.29.769-11.033 6.086-11.033 12.367v20.25h-12.552c-22.758 0-42.809 16.136-47.676 38.367l-.285 1.302c-1.98 9.045-7.663 16.975-15.591 21.757l-157.159 94.789c-9.166 5.529-14.861 15.613-14.861 26.318v21.174c0 8.513 6.926 15.438 15.438 15.438 18.271 0 36.198-4.988 51.844-14.424l11.887-7.169c.237.023 88.028.036 88.028.036 4.126 0 7.47-3.345 7.47-7.47s-3.345-7.47-7.47-7.47h-63.317l152.12-91.748 152.12 91.747h-206.932c-4.126 0-7.47 3.345-7.47 7.47s3.345 7.47 7.47 7.47h231.704l11.827 7.133c15.646 9.436 33.573 14.424 51.843 14.424 8.513 0 15.438-6.926 15.438-15.438v-21.173c0-10.705-5.694-20.789-14.861-26.318z"/></g></svg>