<svg id="Layer_1" enable-background="new 0 0 512 512" viewBox="0 0 512 512" xmlns="http://www.w3.org/2000/svg"><g><g><g><path d="m413.227 304.64-128.363-88.171-3.563-3.435c-3.968-3.733-3.968-3.733-3.968-10.368 0-9.643 6.549-15.253 17.237-23.595 11.329-8.852 25.43-19.882 25.43-40.404 0-29.397-23.936-53.333-53.333-53.333s-53.333 23.936-53.333 53.333c0 5.888 4.779 10.667 10.667 10.667s10.667-4.779 10.667-10.667c0-17.643 14.357-32 32-32s32 14.357 32 32c0 9.643-6.549 15.253-17.237 23.595-11.33 8.853-25.431 19.882-25.431 40.405 0 14.272 3.435 19.072 10.709 25.899l134.208 93.461c5.803 4.224 4.437 10.197 3.861 11.925-.555 1.728-2.944 7.381-10.155 7.381h-277.247c-7.189 0-9.579-5.653-10.155-7.381-.555-1.728-1.941-7.68 3.861-11.904l108.501-78.741c4.779-3.456 5.824-10.133 2.368-14.891-3.477-4.779-10.155-5.845-14.891-2.368l-108.521 78.763c-11.413 8.299-15.979 22.336-11.605 35.776 4.373 13.419 16.32 22.101 30.443 22.101h277.248c14.123 0 26.069-8.683 30.443-22.101 4.351-13.462-.193-27.499-11.841-35.947z"/><path d="m256 0c-141.163 0-256 114.837-256 256s114.837 256 256 256 256-114.837 256-256-114.837-256-256-256zm0 490.667c-129.387 0-234.667-105.28-234.667-234.667s105.28-234.667 234.667-234.667 234.667 105.28 234.667 234.667-105.28 234.667-234.667 234.667z"/></g></g></g><g/><g/><g/><g/><g/><g/><g/><g/><g/><g/><g/><g/><g/><g/><g/></svg>