<?xml version="1.0" encoding="UTF-8"?>
<svg xmlns="http://www.w3.org/2000/svg" id="Outline" viewBox="0 0 512 512" width="512" height="512"><path d="M494.33,339.108,358.364,163.152C352.18,154.916,342.313,144,328,144H299.313l34.344-34.343a7.988,7.988,0,0,0,2.17-7.222l.018,0L324.99,48.155A40.109,40.109,0,0,0,285.766,16H226.234A40.109,40.109,0,0,0,187.01,48.155l-10.855,54.276.018,0a7.988,7.988,0,0,0,2.17,7.222L212.687,144H184c-14.313,0-24.18,10.916-30.364,19.152L17.67,339.108a8,8,0,0,0,.184,10.014l40,48A8,8,0,0,0,63.923,400a7.856,7.856,0,0,0,6.122-2.761l86.017-99.25L128.086,486.828A8,8,0,0,0,136,496H376a8,8,0,0,0,7.914-9.172L355.938,297.989l86.017,99.25A8,8,0,0,0,448,400h.077a8,8,0,0,0,6.069-2.878l40-48A8,8,0,0,0,494.33,339.108ZM202.7,51.293A24.065,24.065,0,0,1,226.234,32h59.532A24.065,24.065,0,0,1,309.3,51.293L318.242,96H193.758ZM308.687,112l-26.344,26.343a8,8,0,0,0-2.1,3.717L265.754,200H246.246l-14.485-57.94a8,8,0,0,0-2.1-3.717L203.313,112ZM248,216h16V480H248ZM64.12,379.647,34.256,343.811,160,181.083v87.933ZM175.914,273.172A8,8,0,0,0,175.99,272H176V162.858A13.963,13.963,0,0,1,184,160h16v72a8,8,0,0,0,16,0V160h3.754L232,208.985V480H145.272ZM366.728,480H280V208.985L292.246,160H296v72a8,8,0,0,0,16,0V160h16a13.963,13.963,0,0,1,8,2.858V272h.01a8,8,0,0,0,.076,1.172ZM447.88,379.647,352,269.016V181.083L477.744,343.811Z"/><path d="M212.8,353.6a8,8,0,0,0-11.2,1.6l-24,32a8,8,0,1,0,12.8,9.6l24-32A8,8,0,0,0,212.8,353.6Z"/><path d="M310.4,355.2a8,8,0,0,0-12.8,9.6l24,32a8,8,0,1,0,12.8-9.6Z"/></svg>
