<svg id="Flat" height="512" viewBox="0 0 512 512" width="512" xmlns="http://www.w3.org/2000/svg"><path d="m376 488-32-216 104 120 40-48-136-176c-6.043-8.058-13.928-16-24-16h-144c-10.072 0-17.957 7.942-24 16l-136 176 40 48 104-120-32 216z" fill="#2d85cc"/><path d="m448 392-104-120 32 216h-240l32-216-104 120-40-48 136-176a60.8 60.8 0 0 1 8-8.97c4.58-4.1 9.89-7.03 16-7.03h144c6.11 0 11.42 2.93 16 7.03a60.8 60.8 0 0 1 8 8.97l136 176z" fill="#2d85cc"/><path d="m317.145 49.724a32 32 0 0 0 -31.379-25.724h-59.532a32 32 0 0 0 -31.379 25.724l-10.855 54.276 40 40 16 64h32l16-64 40-40z" fill="#2d85cc"/><path d="m240 144h32v344h-32z" fill="#99c7e8"/><path d="m328 104-40 40-16 64h-32l-16-64-40-40z" fill="#266fab"/><path d="m168 159.03v112.97l-104 120-40-48 136-176a60.8 60.8 0 0 1 8-8.97z" fill="#266fab"/><path d="m488 344-40 48-104-120v-112.97a60.8 60.8 0 0 1 8 8.97z" fill="#266fab"/><g fill="#99c7e8"><path d="m183.994 400a8 8 0 0 1 -6.394-12.8l24-32a8 8 0 1 1 12.8 9.6l-24 32a7.985 7.985 0 0 1 -6.406 3.2z"/><path d="m328.006 400a7.987 7.987 0 0 1 -6.406-3.2l-24-32a8 8 0 0 1 12.8-9.6l24 32a8 8 0 0 1 -6.394 12.8z"/><path d="m208 240a8 8 0 0 1 -8-8v-80a8 8 0 0 1 16 0v80a8 8 0 0 1 -8 8z"/><path d="m304 240a8 8 0 0 1 -8-8v-80a8 8 0 0 1 16 0v80a8 8 0 0 1 -8 8z"/></g></svg>