<svg id="Capa_1" enable-background="new 0 0 512 512" height="512" viewBox="0 0 512 512" width="512" xmlns="http://www.w3.org/2000/svg"><g><path d="m512 339.036c0 51.793-41.988 83.352-93.771 83.352h-181.321l-21.942-32.361h-53.209v32.361h-108.608c-19.963 0-37.612-7.47-42.28-27.183l-5.897-27.121 14.878-89.28 2.594-15.628 2.792-16.733 1.302-7.814v-97.157c0-2.667.323-5.272.938-7.752 3.47-14.097 16.191-24.547 31.361-24.547h64.796l7.825-2.605 80.996-26.999c4.311-1.437 8.873 1.376 9.524 5.873l2.303 15.895 2.261 15.681 9.117 63.014 1.25 8.617 6.939 4.793 25.204 17.41 13.034 9.002 24.995 17.264 13.024 9.002 22.484 15.524 12.857 8.887 20.619 14.243 6.481 4.47h79.663c26.433 0 48.052 20.598 49.688 46.625.072 1.041.103 2.104.103 3.167z" fill="#ffe177"/><path d="m57.8 238.627v-97.156c0-17.838 14.461-32.299 32.299-32.299h-31.257c-17.838 0-32.299 14.461-32.299 32.299v97.156l-21.576 129.455c9.765 4.012 19.624 7.373 29.594 9.977z" fill="#ffd15b"/><g><g fill="#ffd15b"><path d="m131.666 147.181.177 30.069v.281c-.323 10.242-4.48 19.879-11.732 27.12l-30.038 30.039c-7.575 7.575-17.65 11.753-28.36 11.753h-36.477l1.302-7.814v-7.814h35.174c6.533 0 12.69-2.553 17.306-7.168l30.038-30.038c4.397-4.397 6.929-10.221 7.158-16.42l-.167-27.839h-89.508v-7.877c0-2.667.323-5.272.938-7.752h88.488l-.146-24.505v-.042h7.814l7.825-2.605.115 24.245 92.708-29.475 2.261 15.681z"/><path d="m290.881 199.494c-3.105-3-8.053-2.91-11.049.192l-32.364 33.513c-2.999 3.104-2.912 8.051.192 11.049 1.517 1.465 3.473 2.194 5.427 2.194 2.046 0 4.089-.799 5.622-2.386l32.364-33.513c2.999-3.105 2.912-8.052-.192-11.049z"/><path d="m330.187 224.307c-3.117-2.987-8.062-2.879-11.049.235l-29.926 31.23c-2.986 3.117-2.88 8.064.235 11.049 1.515 1.452 3.461 2.172 5.406 2.172 2.055 0 4.109-.807 5.643-2.407l29.926-31.23c2.986-3.117 2.88-8.064-.235-11.049z"/><path d="m329.464 293.537c1.376.98 2.959 1.451 4.527 1.451 2.442 0 4.847-1.142 6.371-3.281l21.851-30.68c2.504-3.514 1.684-8.394-1.83-10.897-3.517-2.506-8.396-1.683-10.898 1.83l-21.851 30.68c-2.505 3.514-1.685 8.394 1.83 10.897z"/><path d="m391.369 289.244-18.118 33.976c-.938 1.761-2.522 3.094-4.418 3.73l-7.668 2.553c-21.255 7.085-35.539 26.902-35.539 49.303 0 4.313-3.49 7.814-7.814 7.814-4.314 0-7.814-3.501-7.814-7.814 0-29.142 18.577-54.908 46.218-64.129l4.72-1.573 15.128-28.329 6.481 4.47h8.824z"/><path d="m165.746 370.115c1.928 3.855-2.396 3.022-6.251 4.959-1.125.552-2.313.823-3.49.823-2.865 0-5.626-1.584-6.991-4.324l-30.694-61.378c-9.679-19.358-29.142-31.392-50.792-31.392h-47.678l2.594-15.628h45.083c21.494 0 41.29 9.294 54.825 25.058l9.94-35.529c.5-1.771 1.604-3.313 3.126-4.355l100.241-68.317 1.25 8.617 6.939 4.793-97.271 66.223-12.93 46.24z"/></g></g><g fill="#f9c041"><path d="m57.8 141.471c0-2.673.331-5.267.943-7.751h-31.257c-.612 2.484-.943 5.078-.943 7.751v7.877h31.257z"/><path d="m57.8 238.627v-7.813h-31.257v7.813l-1.303 7.815h31.257z"/><path d="m22.452 263.175-2.605 15.628.003.001h31.254l2.604-15.629z"/></g><path d="m512 339.036c0 50.282-39.582 91.322-89.28 93.656-1.49.083-2.98.114-4.491.114h-178.3c-1.938 0-3.793-.771-5.157-2.136l-28.09-28.089c-1.375-1.365-3.23-2.136-5.157-2.136h-22.057c-4.022 0-7.293 3.261-7.293 7.293v17.775c0 4.032-3.261 7.293-7.293 7.293h-132.571c-19.963 0-35.143-17.92-31.861-37.602l4.522-27.121c47.49 19.515 97.23 23.641 151.023 0h64.733l161.817 17.869 38.759-.677c36.466-.636 70.318-19.098 90.593-49.407.072 1.042.103 2.105.103 3.168z" fill="#8f5a46"/><path d="m31.704 395.2 2.857-17.142c-9.97-2.603-19.83-5.965-29.594-9.977l-4.52 27.119c-3.281 19.687 11.901 37.609 31.859 37.609h31.257c-19.958 0-35.14-17.921-31.859-37.609z" fill="#7d4f3d"/><g><path d="m131.447 416.626v16.18h-15.628v-16.18c0-4.314 3.501-7.814 7.814-7.814s7.814 3.5 7.814 7.814z" fill="#7d4f3d"/></g><g><path d="m357.997 416.626v16.18h-15.628v-16.18c0-4.314 3.49-7.814 7.814-7.814 4.314 0 7.814 3.5 7.814 7.814z" fill="#7d4f3d"/></g><g><path d="m293.264 416.626v16.18h-15.628v-16.18c0-4.314 3.501-7.814 7.814-7.814 4.324 0 7.814 3.5 7.814 7.814z" fill="#7d4f3d"/></g><g><path d="m422.72 416.626v16.066c-1.49.083-2.98.114-4.491.114h-11.138v-16.18c0-4.314 3.501-7.814 7.814-7.814 4.314 0 7.815 3.5 7.815 7.814z" fill="#7d4f3d"/></g><g><path d="m66.725 416.626v16.18h-15.629v-16.18c0-4.314 3.49-7.814 7.814-7.814 4.314 0 7.815 3.5 7.815 7.814z" fill="#7d4f3d"/></g></g></svg>