<svg height="416pt" viewBox="-46 0 416 416.3" width="416pt" xmlns="http://www.w3.org/2000/svg"><path d="m278.648438 0h-140.597657c-25.199219 0-45.699219 20.699219-45.699219 46.199219v65.101562c0 3.863281 3.132813 7 7 7 3.863282 0 7-3.136719 7-7v-65.101562c0-17.699219 14.199219-32.097657 31.597657-32.097657h140.699219c17.402343 0 31.601562 14.398438 31.601562 32.097657v324c0 17.699219-14.199219 32.101562-31.601562 32.101562h-140.597657c-17.402343 0-31.601562-14.402343-31.601562-32.101562v-64.597657c0-3.867187-3.132813-7-7-7-3.863281 0-7 3.132813-7 7v64.597657c0 25.402343 20.5 46.101562 45.601562 46.101562h140.699219c25.199219 0 45.601562-20.699219 45.601562-46.101562v-324c0-25.5-20.5-46.199219-45.703124-46.199219zm0 0"/><path d="m22.449219 215.199219h143.902343c3.863282 0 7-3.132813 7-7 0-3.863281-3.136718-7-7-7h-143.902343l27.199219-32.199219c2.515624-2.953125 2.15625-7.386719-.796876-9.898438-2.957031-2.515624-7.386718-2.15625-9.902343.796876l-37 43.703124c-.199219.296876-.5.597657-.699219.898438 0 .054688-.042969.101562-.101562.101562-.183594.320313-.351563.65625-.5 1 0 .097657 0 .097657-.097657.199219-.101562.300781-.199219.699219-.300781 1v.199219c-.132812.726562-.132812 1.472656 0 2.199219v.199219c.101562.402343.199219.703124.300781 1 0 .101562 0 .101562.097657.203124.128906.351563.296874.6875.5 1 0 .054688.046874.097657.101562.097657.203125.324219.4375.625.699219.902343l37 43.699219c1.332031 1.546875 3.257812 2.453125 5.300781 2.5 1.660156.027344 3.273438-.578125 4.5-1.699219 1.425781-1.203124 2.3125-2.925781 2.464844-4.785156.148437-1.859375-.449219-3.703125-1.664063-5.117187zm0 0"/></svg>