<svg height="512pt" viewBox="-34 0 512 512.00002" width="512pt" xmlns="http://www.w3.org/2000/svg"><g fill="#28c6db"><path d="m353.742188 153.261719v-25.703125l24.90625-62.875 6.894531 2.261718c75.621093 109.234376 58 366.101563 54.921875 404.128907-.21875 2.679687-2.457032 4.738281-5.144532 4.738281h-41.042968c-2.441406 0-4.550782-1.710938-5.054688-4.097656l-35.480468-168.535156zm0 0"/><path d="m90.679688 153.261719v-25.703125l-24.910157-62.875-6.894531 2.261718c-75.621094 109.234376-57.996094 366.101563-54.917969 404.128907.214844 2.679687 2.457031 4.738281 5.144531 4.738281h41.042969c2.441407 0 4.550781-1.710938 5.050781-4.097656l35.484376-168.535156zm0 0"/><path d="m322.585938 512h-200.75c-2.851563 0-5.164063-2.3125-5.164063-5.164062v-36.847657h211.078125v36.847657c0 2.851562-2.3125 5.164062-5.164062 5.164062zm0 0"/></g><path d="m322.585938 512h-13.234376v-42.011719h18.398438v36.847657c0 2.851562-2.3125 5.164062-5.164062 5.164062zm0 0" fill="#17b5c1"/><path d="m435.316406 475.808594h-17.589844c3.613282-48.261719 16.011719-265.707032-43.171874-379.027344l10.984374-29.832031c75.628907 109.230469 58.003907 366.09375 54.925782 404.121093-.21875 2.679688-2.457032 4.738282-5.148438 4.738282zm0 0" fill="#17b5c1"/><path d="m270.183594 29.074219-47.972656 49.015625-47.96875-49.015625-115.367188 37.871093 31.804688 86.320313v317.386719c0 2.851562 2.308593 5.160156 5.160156 5.160156h252.742187c2.851563 0 5.164063-2.308594 5.164063-5.160156v-317.390625l31.800781-86.316407zm0 0" fill="#f79341"/><path d="m385.539062 66.949219-31.789062 86.3125v317.386719c0 2.847656-2.3125 5.160156-5.164062 5.160156h-17.957032v-338.625l31.132813-78.042969zm0 0" fill="#ef7e29"/><path d="m263.289062 331.425781c-.367187-2.53125-2.546874-4.394531-5.101562-4.394531h-71.953125c-2.554687 0-4.734375 1.863281-5.101563 4.394531-1.441406 9.875-8.007812 34.34375-37.980468 52.09375-1.558594.921875-2.503906 2.609375-2.503906 4.417969v37.285156c0 2.847656 2.3125 5.160156 5.164062 5.160156h152.796875c2.851563 0 5.160156-2.3125 5.160156-5.160156v-37.285156c0-1.808594-.945312-3.496094-2.5-4.417969-29.96875-17.75-36.539062-42.21875-37.980469-52.09375zm0 0" fill="#28c6db"/><path d="m303.773438 387.941406v37.285156c0 2.847657-2.3125 5.160157-5.164063 5.160157h-13.410156v-33.617188c0-2.078125-1.085938-4.007812-2.871094-5.0625-34.3125-20.320312-38.535156-48.34375-40.1875-59.648437-.421875-2.890625-2.914063-5.03125-5.84375-5.03125h21.890625c2.558594 0 4.738281 1.871094 5.097656 4.398437 1.445313 9.871094 8.011719 34.34375 37.988282 52.09375 1.550781.917969 2.5 2.613281 2.5 4.421875zm0 0" fill="#17b5c1"/><path d="m181.617188 159.171875c-4.269532 0-7.730469-3.460937-7.730469-7.730469v-76.410156c0-4.265625 3.460937-7.726562 7.730469-7.726562 4.269531 0 7.726562 3.457031 7.726562 7.726562v76.410156c0 4.269532-3.457031 7.730469-7.726562 7.730469zm0 0" fill="#28c6db"/><path d="m262.808594 159.171875c-4.269532 0-7.730469-3.460937-7.730469-7.730469v-76.410156c0-4.265625 3.460937-7.726562 7.730469-7.726562 4.269531 0 7.726562 3.457031 7.726562 7.726562v76.410156c0 4.269532-3.460937 7.730469-7.726562 7.730469zm0 0" fill="#28c6db"/><path d="m355.960938 26.382812c-11.503907-28.472656-48.746094-35.394531-70.15625-13.386718l-15.628907 16.226562-47.90625 49.074219-46.347656-47.351563-1.683594-1.722656-15.472656-16.191406c-21.445313-22.042969-58.6875-15.121094-70.1875 13.351562-3.4375 8.5-5.640625 19.207032-5.855469 32.734376l52.125-6.433594c12.90625 10.449218 35.730469 27.535156 51.65625 32.378906 39.367188 11.980469 82.128906 2.394531 114.605469-21.953125 4.703125-3.527344 9.226563-7.316406 13.480469-11.378906.382812-.367188 47.171875 7.410156 47.171875 7.410156-.214844-13.53125-2.367188-24.257813-5.800781-32.757813zm0 0" fill="#28c6db"/></svg>