<svg id="Capa_1" enable-background="new 0 0 512 512" height="512" viewBox="0 0 512 512" width="512" xmlns="http://www.w3.org/2000/svg"><g><path d="m420.489 454.856c13.962-11.45 20.53-31.339 13.667-50.142l-43.154-119.608v-149.106l-30-45h-105-105l-30 45v149.106l-43.155 119.594c-4.116 11.294-3.589 23.511 1.494 34.409 2.886 6.196 7.046 11.543 12.173 15.747l-6.006 16.479c-2.847 7.841 1.207 16.404 8.965 19.233l56.382 20.522c7.793 2.827 16.392-1.172 19.219-8.95l6.021-16.523c19.38-1.099 36.006-11.235 42.7-29.604l3.882-10.679c5.083-13.959 18.471-23.334 33.325-23.334s28.242 9.375 33.325 23.335l3.882 10.693c6.694 18.354 25.195 28.755 42.7 29.59l6.021 16.523c2.844 7.817 11.501 11.768 19.219 8.95l56.382-20.522c7.773-2.834 11.807-11.411 8.965-19.233z" fill="#7ed8f6"/><path d="m289.327 445.335 3.882 10.693c6.694 18.354 25.195 28.755 42.7 29.59l6.021 16.523c2.844 7.817 11.501 11.768 19.219 8.95l56.382-20.522c7.773-2.834 11.807-11.411 8.965-19.233l-6.006-16.479c13.962-11.45 20.53-31.339 13.667-50.142l-43.154-119.608v-149.107l-30-45h-105v331c14.852 0 28.241 9.375 33.324 23.335z" fill="#6aa9ff"/><path d="m166.002 181c-24.814 0-45-20.186-45-45v-121c0-8.291 6.709-15 15-15h60c8.291 0 15 6.709 15 15v121c0 24.814-20.186 45-45 45z" fill="#a8ebfa"/><path d="m346.002 181c-24.814 0-45-20.186-45-45v-121c0-8.291 6.709-15 15-15h60c8.291 0 15 6.709 15 15v121c0 24.814-20.186 45-45 45z" fill="#7ed8f6"/><path d="m316.002 211h-60-60c-8.291 0-15 6.709-15 15v60c0 24.814 20.186 45 45 45h30 30c24.814 0 45-20.186 45-45v-60c0-8.291-6.709-15-15-15z" fill="#a8ebfa"/><path d="m331.002 286v-60c0-8.291-6.709-15-15-15h-60v120h30c24.814 0 45-20.186 45-45z" fill="#7ed8f6"/></g></svg>