<svg id="Fill_Outline" height="512" viewBox="0 0 64 64" width="512" xmlns="http://www.w3.org/2000/svg"><g id="Color"><g><g><path d="m54.321 24.991-1.779-1.334c-2.061-1.546-4.926-1.427-6.851.285l-5.691 5.058 3 11 3.523-3.02c2.008-1.721 4.964-1.741 6.995-.049.994.828 2.23 1.251 3.482 1.248v-12.14c-.954-.101-1.882-.451-2.679-1.048z" fill="#00b4d8"/><path d="m57 33.18v5c-1.25 0-2.49-.42-3.48-1.25-2.03-1.69-4.99-1.67-7 .05l-3.52 3.02-3-11 4.62-4.11c.46.9.98 1.76 1.59 2.57.32.42.61.85.87 1.29.7 1.17 1.93 1.85 3.3 1.94 1.12.07 2.22.48 3.14 1.24.99.83 2.23 1.25 3.48 1.25z" fill="#0096c7"/><path d="m49 35.785c1.361-.268 2.795.002 4 .788v-12.573l-.458-.344c-1.049-.787-2.306-1.137-3.542-1.071z" fill="#f9dbaf"/><path d="m53 31.55v5.02c-1.2-.78-2.64-1.05-4-.78v-5.41c.43.17.9.28 1.38.31.92.06 1.82.34 2.62.86z" fill="#edb88e"/></g><g><path d="m56.589 49.115.236-2.211c.273-2.562-1.296-4.962-3.752-5.74l-7.259-2.299-7.914 8.208 4.397 1.481c2.506.844 4.037 3.373 3.622 5.985-.203 1.277.067 2.556.71 3.63l10.43-6.215c-.4-.872-.575-1.848-.47-2.839z" fill="#00b4d8"/><path d="m50.13 56.08-3.5 2.09c-.64-1.08-.91-2.35-.71-3.63.41-2.61-1.12-5.14-3.62-5.99l-4.4-1.48 7.91-8.21 3.1.98c-.27 2.45-1.33 4.48-2.98 6.32-.42.46-.22 1.19.37 1.39 2.19.75 3.72 2.78 3.72 5.03 0 .28-.03.57-.08.86-.16.9-.09 1.8.19 2.64z" fill="#0096c7"/><path d="m44.593 50.069c.927 1.032 1.429 2.402 1.37 3.84l10.801-6.436.061-.569c.139-1.304-.204-2.563-.893-3.591z" fill="#f9dbaf"/><path d="m47.648 48.248-3.056 1.821c.927 1.032 1.429 2.402 1.37 3.84l3.944-2.35c-.278-1.341-1.107-2.523-2.258-3.311z" fill="#edb88e"/></g><g><path d="m47 37.5c0 4.556-2.462 7.681-6.444 10.667s-9.481 5.833-15.556 5.833c-5.801 0-12.079-.684-16.009-3.436-4.302-3.012-5.991-8.302-5.991-13.064 0-9.113 9.85-16.5 22-16.5s22 7.387 22 16.5z" fill="#ade8f4"/><path d="m47 37.5c0 4.56-2.46 7.68-6.44 10.67-3.98 2.98-9.48 5.83-15.56 5.83-5.8 0-12.08-.68-16.01-3.44-4.3-3.01-5.99-8.3-5.99-13.06 0-.74.07-1.48.2-2.19.56 3.92 2.33 7.83 5.79 10.25 3.93 2.76 10.21 3.44 16.01 3.44 6.08 0 11.58-2.85 15.56-5.83 3.22-2.42 5.45-4.93 6.18-8.22.17.83.26 1.68.26 2.55z" fill="#48cae4"/><g fill="#fcf2ad"><path d="m16.23 37.4-1.9 15.48c-2.01-.52-3.84-1.27-5.34-2.32-.13-.09-.26-.19-.39-.3l1.67-13.59z"/><path d="m45.97 42.17c-.87 1.83-2.27 3.42-4.08 4.95l-7.15-12.38 5.2-3z"/><path d="m32.45 52.63c-1.86.68-3.84 1.15-5.91 1.3l-1.23-14.68 5.98-.5z"/></g><path d="m14.93 48.03-.6 4.85c-2.01-.52-3.84-1.27-5.34-2.32-.13-.09-.26-.19-.39-.3l.56-4.59c1.61 1.09 3.6 1.85 5.77 2.36z" fill="#f9dbaf"/><path d="m45.97 42.17c-.87 1.83-2.27 3.42-4.08 4.95l-2-3.46c.23-.16.45-.33.67-.49 1.54-1.16 2.86-2.34 3.89-3.62z" fill="#f9dbaf"/><path d="m32.45 52.63c-1.86.68-3.84 1.15-5.91 1.3l-.42-4.96c2.06-.12 4.05-.55 5.92-1.2z" fill="#f9dbaf"/></g><g><path d="m43 30c0 7.732-8.507 14-19 14s-19-6.268-19-14c0-2.899 1.196-5.452 3.245-7.511 1.782-1.791 4.209-3.544 7.054-4.489 2.607-.866 7.701 0 10.701 1 4.877 1.626 7.806-.735 11.226 1.464 3.561 2.29 5.774 5.592 5.774 9.536z" fill="#48cae4"/><path d="m43 30c0-3.251-1.521-6.055-4.044-8.227-1.243 1.191-2.921 1.868-4.655 1.727-2.367-.192-4.845.652-8.301-.5-3-1-8.094-1.866-10.701-1-.576.191-1.134.416-1.673.667-1.735.809-3.705.658-5.33-.227-.016.016-.035.033-.051.049-2.049 2.058-3.245 4.611-3.245 7.511 0 7.732 8.507 14 19 14s19-6.268 19-14z" fill="#00b4d8"/><path d="m20.4 29.63-5.69 1.91-3.8-11.29c1.3-.92 2.78-1.71 4.39-2.25.33-.11.7-.19 1.1-.24z" fill="#f9dbaf"/><path d="m33.28 19.47-.9 11.74-5.98-.46.87-11.41c2.36.52 4.25.16 6.01.13z" fill="#f9dbaf"/><g fill="#edb88e"><path d="m20.4 29.63-5.69 1.91-2.82-8.38c.59-.07 1.18-.23 1.74-.49.54-.25 1.09-.48 1.67-.67.66-.22 1.49-.33 2.41-.35z"/><path d="m32.97 23.48-.59 7.73-5.98-.46.57-7.48c2.36.58 4.25.27 6 .21z"/></g></g><g><path d="m37.226 29.464c-3.42-2.199-6.349.162-11.226-1.464-3-1-8.094-1.866-10.701-1-2.846.945-5.272 2.698-7.054 4.489-.919.923-1.655 1.951-2.199 3.059 2.564 5.496 9.624 9.452 17.954 9.452 8.327 0 15.385-3.953 17.952-9.446-.982-2.001-2.608-3.728-4.726-5.09z" fill="#0096c7"/><path d="m43 30c0 4.124-.422 7.832-4.274 10.394-3.369 2.241-9.832 3.606-14.726 3.606-4.78 0-11.148-.302-14.488-2.45-3.99-2.567-4.512-7.342-4.512-11.55 0-1.61.37-3.12 1.06-4.5 1.16 3.16 4.21 5.17 6.85 6.77 2.82 1.71 6.31.73 10.09.73 4.16 0 8.86-.23 11.82-2.27 3.22-2.23 3.76-5.19 4.1-9.01 2.56 2.18 4.08 5.01 4.08 8.28z" fill="#ade8f4"/><path d="m43 30c0 4.12-.42 7.83-4.27 10.39-3.37 2.25-9.84 3.61-14.73 3.61-4.78 0-11.15-.3-14.49-2.45-3.99-2.57-4.51-7.34-4.51-11.55 0-.72.07-1.43.22-2.11.41 3 1.5 5.87 4.29 7.66 3.34 2.15 9.71 2.45 14.49 2.45 4.89 0 11.36-1.36 14.73-3.61 2.6-1.73 3.63-3.98 4.04-6.53.15.69.23 1.4.23 2.14z" fill="#48cae4"/><path d="m20.4 33.12-.75 10.77c-2.04-.11-4.12-.33-5.97-.76l.72-10.2c1.82.53 3.84.34 6 .19z" fill="#fcf2ad"/><path d="m36.48 41.58c-1.71.74-3.77 1.33-5.87 1.74l-.94-10.74c1.94-.32 3.74-.88 5.15-1.85.24-.16.46-.33.67-.51z" fill="#fcf2ad"/><g fill="#f9dbaf"><path d="m20.07 37.91-.42 5.98c-2.04-.11-4.12-.33-5.97-.76l.42-5.91c1.88.4 3.95.6 5.97.69z"/><path d="m36.48 41.58c-1.71.74-3.77 1.33-5.87 1.74l-.52-5.9c2.09-.38 4.14-.93 5.89-1.63z"/></g></g></g></g><g id="Outline_copy"><path d="m53.387 55.306c.396.631.82 1.226 1.252 1.751l.645.785c.35.427.981.488 1.407.138.427-.351.488-.98.138-1.407l-.645-.785c-.369-.449-.724-.97-1.067-1.513l1.58-.942c.482.701 1.098 1.299 1.817 1.76l.946.606c.465.3 1.083.163 1.381-.302s.163-1.083-.302-1.381l-.946-.606c-.707-.453-1.269-1.102-1.625-1.875-.335-.729-.468-1.529-.385-2.313l.236-2.211c.322-3.021-1.547-5.881-4.444-6.799l-2.899-.918c-.525-.17-1.088.125-1.255.651s.125 1.088.651 1.255l2.899.918c.62.196 1.16.533 1.619.951l-9.652 5.751c-.567-.484-1.225-.873-1.96-1.143 2.783-2.383 5.222-5.492 5.222-10.177 0-.092-.012-.182-.014-.274 1.57-.838 3.513-.674 4.892.474 1.146.955 2.605 1.48 4.111 1.48h.013c.828-.002 1.625-.154 2.369-.452l2-.8c.513-.205.762-.787.557-1.3-.205-.512-.785-.761-1.3-.557l-2 .8c-.203.082-.413.147-.628.196v-2.507c.385-.02.761-.05 1.12-.094l2-.243c.548-.066.938-.565.872-1.113s-.566-.932-1.113-.872l-2 .243c-.283.034-.576.061-.879.079v-1.65c.744-.017 1.472-.077 2.146-.179l1.005-.153c.546-.083.921-.593.838-1.139s-.598-.92-1.139-.838l-1.004.153c-.576.087-1.205.125-1.845.141v-1.839c.849-.055 1.678-.278 2.442-.66l1.005-.502c.494-.247.694-.848.447-1.342s-.847-.694-1.342-.447l-1.005.502c-.751.376-1.596.526-2.442.437h-.001c-.797-.086-1.552-.38-2.183-.854l-1.779-1.335c-2.432-1.822-5.844-1.681-8.116.338l-2.157 1.917c-.743-1.514-1.845-2.907-3.286-4.137-.001 0-.001-.001-.001-.002-.002-.002-.004-.003-.006-.005-.003-.003-.006-.006-.009-.008-.001-.001-.003-.001-.004-.002-.502-.443-1.071-.867-1.794-1.337-2.081-1.339-3.967-1.215-5.964-1.082-1.655.11-3.369.223-5.495-.487-.678-.223-1.39-.425-2.116-.602-.53-.131-1.077.198-1.208.735-.13.537.199 1.077.735 1.208.675.165 1.336.352 1.959.557.18.06.351.105.526.155l-.512 6.753c-1.494-.447-3.532-.893-5.545-1.096l-2.395-7.105c.648-.016 1.36.005 2.158.08.556.05 1.038-.352 1.09-.901s-.352-1.038-.901-1.09c-2.172-.206-3.893-.103-5.121.307-3.372 1.125-5.913 3.194-7.454 4.735-.988.999-1.783 2.097-2.362 3.263-.001.001-.001.002-.002.003-.771 1.548-1.163 3.212-1.163 4.948 0 .118.002.239.003.359-1.327 2.231-2.003 4.633-2.003 7.141 0 5.878 2.399 11.067 6.416 13.878 2.453 1.724 5.985 2.843 10.498 3.326.036.004.072.006.108.006.504 0 .938-.38.993-.894.059-.549-.338-1.042-.888-1.101-1.334-.143-2.559-.349-3.695-.604l.917-7.508c2.633.331 5.372.397 7.651.397.255 0 .518-.006.784-.013l.673 7.999c-.153.004-.303.014-.457.014-.65 0-1.3-.01-1.96-.029-.562-.021-1.013.417-1.029.97-.017.552.417 1.013.97 1.029.679.02 1.349.03 2.019.03 6.559 0 12.237-3.141 15.92-5.855l1.058.356c2.051.69 3.293 2.743 2.954 4.88-.234 1.477.064 3.004.84 4.301 0 .001.001.001.002.002.426.71.963 1.316 1.599 1.802l1.711 1.309c.181.138.395.205.606.205.301 0 .599-.135.795-.393.335-.438.252-1.066-.187-1.402l-1.711-1.309c-.174-.133-.337-.279-.49-.439l2.153-1.283c.214.32.432.627.654.914l1.232 1.594c.197.255.493.388.792.388.214 0 .429-.068.611-.209.437-.337.517-.966.179-1.403l-1.232-1.594c-.175-.226-.347-.464-.517-.715zm2.444-3.785-8.758 5.219c-.215-.659-.273-1.361-.165-2.046.01-.065.005-.128.013-.192l8.655-5.157c-.039.734.042 1.47.255 2.176zm0-4.723-.008.072-9.011 5.369c-.154-.666-.4-1.304-.751-1.882l9.473-5.644c.257.648.374 1.358.297 2.085zm-9.831-9.298c0 .803-.084 1.562-.249 2.294l-2.37-4.101c.448-1.537.581-3.159.61-4.776 1.314 2.046 2.009 4.278 2.009 6.583zm-4-7.5c0 3.697-.293 7.21-3.828 9.562-.25.166-.53.327-.822.486l-.82-9.416c2.047-1.886 2.789-4.179 3.155-6.74 1.521 1.796 2.315 3.878 2.315 6.108zm-10.493 12.107-.763-8.722c1.426-.299 2.743-.748 3.897-1.396l.779 8.944c-1.172.454-2.506.85-3.913 1.174zm-21.454-1.398c-3.572-2.297-4.053-6.703-4.053-10.709 0-.695.077-1.376.229-2.039 1.548 2.234 3.945 3.82 6.163 5.164.314.19.634.347.958.483l-.582 8.255c-1.032-.3-1.969-.674-2.715-1.154zm5.264-6.566c1.283.193 2.623.143 4.006.049l-.602 8.638c-1.299-.098-2.669-.256-3.982-.503zm4.567-1.995c-2.512.184-4.683.341-6.456-.733-.679-.412-1.359-.836-2.014-1.286 1.345-.957 2.752-1.695 4.202-2.181 2.181-.728 6.925-.047 10.067 1 2.49.831 4.486.698 6.251.583 1.039-.068 1.938-.124 2.799.017-.153.122-.312.241-.481.358-2.669 1.841-6.985 2.094-11.252 2.094-1.075 0-2.113.076-3.116.148zm17.99-9.989c-.218 2.258-.543 4.149-1.598 5.728-.885-.315-1.744-.418-2.605-.426l.534-6.971c.848.065 1.65.275 2.48.809.468.304.844.583 1.189.86zm-5.936-1.626c.088-.006.172-.011.259-.016l-.538 7.029c-1.246.082-2.53.147-3.998-.142l.522-6.889c1.395.171 2.625.094 3.755.018zm-16.322-1.584c.035-.012.083-.017.12-.028l2.268 6.73c-1.125.004-2.172.118-3.022.402-.316.106-.627.241-.939.367l-1.941-5.763c1.026-.66 2.196-1.269 3.514-1.708zm-6.669 4.248c.407-.407.901-.856 1.458-1.312l1.814 5.386c-.84.456-1.657.995-2.453 1.598-1.108-.95-2.025-2.034-2.59-3.326.462-.828 1.051-1.618 1.771-2.346zm-4.947 14.303c0-.942.134-1.864.356-2.769.496 2.818 1.654 5.548 4.237 7.39l-.749 6.087c-2.426-2.591-3.844-6.42-3.844-10.708zm9.48 14.094c-1.499-.476-2.774-1.074-3.816-1.789l.815-6.625c1.156.494 2.487.853 3.893 1.117zm7.238-8.65.619-8.888c.551-.032 1.106-.056 1.663-.056 1.95 0 3.909-.064 5.765-.291l.77 8.792c-1.847.317-3.748.499-5.535.499-.736 0-1.909-.002-3.282-.056zm6.063 1.926c1.284-.113 2.628-.301 3.967-.559l.641 7.628c-1.253.408-2.57.72-3.937.897zm6.554 6.345-.616-7.34c1.848-.464 3.612-1.066 5.095-1.808l2.782 4.812c-.206.163-.415.327-.634.491-1.753 1.311-4.015 2.749-6.627 3.845zm8.807-5.658-2.609-4.513c1.29-.908 2.214-1.939 2.868-3.051l2.437 4.216c-.623 1.139-1.508 2.237-2.696 3.348zm1.509-18.295c-.012-.045-.027-.089-.039-.135l2.744-2.439c.486-.432 1.051-.723 1.645-.904v11.266c-.074.025-.148.055-.221.083-.502-2.842-1.898-5.526-4.129-7.871zm12.349 9.808c-.676-.153-1.309-.462-1.842-.906-.05-.042-.107-.071-.158-.111v-7.053c0-.552-.448-1-1-1s-1 .448-1 1v6.006c-.65-.205-1.322-.304-2-.297v-11.065c.688.111 1.357.374 1.942.812l1.779 1.334c.679.51 1.454.877 2.279 1.085z" fill="#023e8a"/></g></svg>