<svg id="Capa_1" enable-background="new 0 0 390.53 390.53" height="512" viewBox="0 0 390.53 390.53" width="512" xmlns="http://www.w3.org/2000/svg"><g><g><path d="m184.467 280.372c-8.536 40.004-42.78 69.353-83.618 71.666-4.919.229-9.837.229-14.757 0-54.105-2.46-93.014-52.63-84.947-105.999l19.675-154.006c4.642-30.827 31.096-53.646 62.272-53.712h20.561c31.214-.012 57.748 22.8 62.418 53.664l8.067 77.814 11.559 76.19c1.752 11.437 1.335 23.101-1.23 34.383z" fill="#ebf0f3"/><path d="m184.467 280.372c-8.536 40.004-42.78 69.353-83.618 71.666-4.919.229-9.837.229-14.757 0-51.991-2.36-90.16-49.187-85.586-100.243 3.494 45.463 40.064 81.34 85.586 83.962 4.919.229 9.837.229 14.757 0 40.824-2.309 75.062-31.633 83.618-71.617.95-4.026 1.575-8.122 1.87-12.248.914 9.533.282 19.15-1.87 28.48z" fill="#e1e6e9"/><path d="m174.139 169.849-8.067-77.863c-4.672-30.863-31.204-53.674-62.418-53.664h-20.561c-31.214-.012-57.748 22.8-62.418 53.664l-11.904 93.455c5.18.652 10.106 2.615 14.313 5.705l12.444-97.244c3.568-23.583 23.909-40.972 47.761-40.825h20.561c23.837-.104 44.154 17.264 47.761 40.825l8.067 77.814 1.87 12.494h.885 13.772.295z" fill="#3a556a"/><path d="m51.071 189.179s36.301-70.339 85.979 0l47.417 91.193h-181.992z" fill="#f7be56"/><path d="m165.383 243.728-28.331-54.549c-49.629-70.339-85.93 0-85.93 0l-29.513 54.549z" fill="#64798a"/><path d="m165.088 280.372h-143.135l34.923-75.256s31.332-70.485 74.42 0z" fill="#64798a"/><g fill="#3a556a"><path d="m171.482 259.221c-8.067-7.575-11.756-19.674-15.052-30.053-4.142-10.174-6.697-20.924-7.575-31.873.131-7.343 6.038-13.271 13.379-13.428h13.772.295l-.344-2.36-1.821-11.904s-57.155-2.804-68.862 26.905 1.033 81.258 79.437 83.618c.946-4.01 1.57-8.089 1.87-12.199 0-1.475 0-2.952 0-4.476-5.423 1.229-11.102-.361-15.099-4.23z"/><path d="m81.716 196.754c-11.953-29.513-70.929-26.905-70.929-26.905l-1.524 11.904-.492 3.64c12.199 2.116 21.79 8.657 21.397 22.675 0 5.951-2.214 11.658-2.509 17.658.009 5.885-.784 11.743-2.36 17.412.836 7.034-2.657 12.346-9.395 17.363-2.227 1.737-4.998 2.627-7.821 2.509-2.506 1.092-5.243 1.549-7.968 1.328 0 1.229 0 2.46.246 3.64.335 4.172.977 8.316 1.919 12.395 78.402-2.363 91.34-53.91 79.436-83.619z"/><path d="m186.337 268.173c-23.955-4.919-56.221-16.921-63.698-28.331-8.706-13.28-9.345-28.922-3.886-37.579 11.904-18.938 37.629-20.069 57.205-20.511l9.837 64.288c1.086 7.328 1.269 14.761.542 22.133z"/><path d="m63.124 239.842c-7.428 11.264-38.907 22.872-62.762 28.136-.652-7.314-.42-14.679.688-21.937l8.214-64.288c19.674.443 45.745 1.377 57.747 20.511 5.26 8.655 4.768 24.347-3.887 37.578z"/><path d="m134.199 199.016c-5.068.361-8.882 4.761-8.52 9.829.361 5.068 4.761 8.882 9.829 8.52 5.014-.357 8.812-4.673 8.529-9.692-.286-5.072-4.63-8.952-9.702-8.666-.045.003-.091.006-.136.009z"/><path d="m135.674 224.79c-5.068.361-8.882 4.761-8.52 9.829.361 5.068 4.761 8.882 9.829 8.52 5.014-.357 8.812-4.673 8.529-9.692-.256-5.046-4.555-8.929-9.603-8.671-.078.003-.157.008-.235.014z"/><path d="m51.859 199.016c5.068.361 8.882 4.761 8.52 9.829-.361 5.068-4.761 8.882-9.829 8.52-5.014-.357-8.812-4.673-8.529-9.692.286-5.072 4.63-8.952 9.702-8.666.045.003.091.006.136.009z"/><path d="m50.383 224.79c5.068.361 8.882 4.761 8.52 9.829-.361 5.068-4.761 8.882-9.829 8.52-5.014-.357-8.812-4.673-8.529-9.692.256-5.046 4.555-8.929 9.603-8.671.078.003.156.008.235.014z"/></g><path d="m134.445 204.28h-84.259c-2.228-.001-4.036 1.802-4.037 4.03s1.802 4.036 4.03 4.037h.007 84.257c2.228-.001 4.031-1.809 4.03-4.037-.001-2.226-1.804-4.029-4.028-4.03z" fill="#ebf0f3"/><path d="m134.445 229.709h-84.259c-2.228-.001-4.036 1.802-4.037 4.03s1.802 4.036 4.03 4.037h.007 84.257c2.228-.001 4.031-1.809 4.03-4.037-.001-2.225-1.804-4.028-4.028-4.03z" fill="#ebf0f3"/><path d="m388.202 280.372c-8.522 40.012-42.773 69.368-83.618 71.666-4.919.229-9.837.229-14.757 0-54.105-2.46-92.963-52.63-84.947-105.999l19.674-154.006c4.643-30.846 31.126-53.671 62.321-53.712h20.561c31.207.01 57.728 22.811 62.418 53.664l8.067 77.814 11.51 76.19c1.802 11.434 1.384 23.107-1.229 34.383z" fill="#ebf0f3"/><path d="m388.202 280.372c-8.522 40.012-42.773 69.368-83.618 71.666-4.919.229-9.837.229-14.757 0-51.942-2.36-90.111-49.187-85.586-100.243 3.515 45.454 40.074 81.319 85.586 83.962 4.919.229 9.837.229 14.757 0 40.846-2.297 75.097-31.653 83.618-71.665.966-4.024 1.608-8.12 1.919-12.248.926 9.55.279 19.187-1.919 28.528z" fill="#e1e6e9"/><path d="m377.921 169.849-8.067-77.863c-4.69-30.853-31.211-53.653-62.418-53.664h-20.561c-31.214-.012-57.748 22.8-62.418 53.664l-11.904 93.456c5.115.698 9.971 2.678 14.118 5.756l12.444-97.244c3.568-23.583 23.909-40.972 47.761-40.825h20.561c23.837-.104 44.154 17.264 47.761 40.825l8.067 77.814 1.87 12.494h.885 13.772.295z" fill="#3a556a"/><path d="m254.855 189.179s36.301-70.339 85.98 0l47.367 91.193h-181.994z" fill="#f7be56"/><path d="m369.166 243.728-28.331-54.549c-49.68-70.339-85.93 0-85.93 0l-29.267 54.549z" fill="#64798a"/><path d="m368.822 280.372h-143.135l34.923-75.256s31.381-70.339 74.371 0z" fill="#64798a"/><path d="m375.266 259.221c-8.067-7.575-11.756-19.674-15.052-30.053-4.122-10.112-6.677-20.794-7.575-31.676.131-7.343 6.038-13.271 13.379-13.428h13.772.295l-.393-2.36-1.77-11.904s-57.155-2.804-69.157 26.905 1.033 81.258 79.437 83.618c.961-4.008 1.603-8.089 1.919-12.199 0-1.475 0-2.952 0-4.476-5.381 1.091-10.95-.568-14.855-4.427z" fill="#3a556a"/><path d="m285.499 196.754c-11.953-29.513-70.978-26.905-70.978-26.905l-1.475 11.904-.492 3.64c12.199 2.116 21.79 8.657 21.397 22.675 0 5.951-2.214 11.658-2.509 17.658.01 5.885-.784 11.743-2.36 17.412.836 7.034-2.655 12.346-9.395 17.363-2.227 1.737-4.998 2.627-7.821 2.509-2.506 1.092-5.243 1.549-7.968 1.328v3.64c.32 4.172.944 8.314 1.87 12.395 78.698-2.363 91.634-53.91 79.731-83.619z" fill="#3a556a"/><path d="m390.12 268.173c-23.955-4.919-56.221-16.921-63.944-28.331-8.706-13.28-9.345-28.922-3.886-37.579 11.854-18.938 37.579-20.069 57.155-20.511l9.837 64.288c1.161 7.318 1.441 14.748.838 22.133z" fill="#3a556a"/><path d="m266.857 239.842c-7.378 11.264-38.858 22.872-62.713 28.136-.694-7.311-.479-14.679.639-21.937l8.264-64.288c19.674.443 45.745 1.377 57.696 20.511 5.46 8.655 4.82 24.347-3.886 37.578z" fill="#3a556a"/><path d="m337.883 199.016c-5.068.361-8.882 4.761-8.52 9.829.361 5.068 4.761 8.882 9.829 8.52 5.014-.357 8.812-4.673 8.529-9.692-.286-5.072-4.63-8.952-9.702-8.666-.045.003-.09.006-.136.009z" fill="#3a556a"/><path d="m339.458 224.79c-5.068.361-8.882 4.761-8.52 9.829.361 5.068 4.761 8.882 9.829 8.52 5.014-.357 8.812-4.673 8.529-9.692-.256-5.046-4.555-8.929-9.603-8.671-.079.003-.158.008-.235.014z" fill="#3a556a"/><path d="m255.642 199.016c5.068.361 8.882 4.761 8.52 9.829-.361 5.068-4.761 8.882-9.829 8.52-5.014-.357-8.812-4.673-8.529-9.692.286-5.072 4.63-8.952 9.702-8.666.045.003.09.006.136.009z" fill="#3a556a"/><path d="m254.265 224.79c5.068.361 8.882 4.761 8.52 9.829-.361 5.068-4.761 8.882-9.829 8.52-5.014-.357-8.812-4.673-8.529-9.692.256-5.046 4.555-8.929 9.603-8.671.078.003.157.008.235.014z" fill="#3a556a"/><path d="m338.227 204.28h-84.257c-2.228.001-4.031 1.809-4.03 4.037.001 2.225 1.805 4.028 4.03 4.03h84.257c2.228-.001 4.031-1.809 4.03-4.037-.002-2.226-1.805-4.029-4.03-4.03z" fill="#ebf0f3"/><path d="m338.227 229.709h-84.257c-2.228.001-4.031 1.809-4.03 4.037.001 2.225 1.805 4.028 4.03 4.03h84.257c2.228-.001 4.031-1.809 4.03-4.037-.002-2.225-1.805-4.028-4.03-4.03z" fill="#ebf0f3"/></g></g></svg>