<svg id="Flat" height="512" viewBox="0 0 64 64" width="512" xmlns="http://www.w3.org/2000/svg"><g><g fill="#d58936"><path d="m28 26.84c0-1.89-.1-3.78-.3-5.67l-.94-8.97c-.05-.49-.14-.96-.25-1.42v-.01c-.19-1.82-.87-3.58-1.98-5.07l-1.91-2.54c-1.02-1.36-2.62-2.16-4.32-2.16h-2.6c-1.7 0-3.3.8-4.32 2.16l-1.91 2.54c-1.11 1.49-1.79 3.25-1.98 5.07v.01c-.11.46-.2.93-.25 1.42l-.94 8.97c-.2 1.89-.3 3.78-.3 5.67 0 2.1-.29 4.18-.87 6.2-.67 2.32-.94 4.73-.85 7.15.02.31.04.61.06.92l.45 5.32c.14 1.71.48 3.39 1.03 5.02 1.13 3.39 3.08 6.45 5.69 8.89l.98.92c1.22 1.15 2.83 1.79 4.51 1.79s3.29-.64 4.51-1.79l.98-.92c2.61-2.44 4.56-5.5 5.69-8.89.55-1.63.89-3.31 1.03-5.02l.45-5.32c.02-.31.04-.61.06-.92.01-.32.02-.63.02-.95 0-2.09-.29-4.18-.87-6.2s-.87-4.1-.87-6.2z"/><path d="m58.87 33.04c-.58-2.02-.87-4.1-.87-6.2 0-1.89-.1-3.78-.3-5.67l-.94-8.97c-.05-.49-.14-.96-.25-1.42v-.01c-.19-1.82-.87-3.58-1.98-5.07l-1.91-2.54c-1.02-1.36-2.62-2.16-4.32-2.16h-2.6c-1.7 0-3.3.8-4.32 2.16l-1.91 2.54c-1.11 1.49-1.79 3.25-1.98 5.07v.01c-.11.46-.2.93-.25 1.42l-.94 8.97c-.2 1.89-.3 3.78-.3 5.67 0 2.1-.29 4.18-.87 6.2s-.87 4.11-.87 6.2c0 .32.01.63.02.95.02.31.04.61.06.92l.45 5.32c.14 1.71.48 3.39 1.03 5.02 1.13 3.39 3.08 6.45 5.69 8.89l.98.92c1.22 1.15 2.83 1.79 4.51 1.79s3.29-.64 4.51-1.79l.98-.92c2.61-2.44 4.56-5.5 5.69-8.89.55-1.63.89-3.31 1.03-5.02l.45-5.32c.02-.31.04-.61.06-.92.09-2.42-.18-4.83-.85-7.15z"/></g><path d="m28.87 33.04c-.58-2.02-.87-4.1-.87-6.2 0-1.89-.1-3.78-.3-5.67l-.94-8.97c-.05-.49-.14-.96-.25-1.42.08.76.08 1.54-.02 2.31-.16 1.26-.55 2.47-1.14 3.56-.59 1.1-1.38 2.09-2.34 2.92l-2.59 2.21c-.4.34-.95.3-1.3 0v.01l.91 5.89.75 4.88.77 4.94.31 2.01c.08.88-.43 1.72-1.25 2.05-.73.29-1.48.49-3.15.68-.15.01-.31.01-.46.01-1.22 0-2.45-.23-3.61-.69-.76-.31-1.26-1.06-1.26-1.87 0-.06 0-.12.01-.18l.31-2.01.76-4.93.76-4.91.91-5.88c-.36.3-.9.34-1.3 0l-2.59-2.21c-1.92-1.66-3.16-3.96-3.48-6.48-.05-.42-.08-.84-.08-1.26 0-.35.02-.71.06-1.05-.11.46-.2.93-.25 1.42l-.94 8.97c-.2 1.89-.3 3.78-.3 5.67 0 2.1-.29 4.18-.87 6.2-.67 2.32-.94 4.73-.85 7.15h.01l2.12 1.42c2.36 1.57 5.05 2.6 7.86 3 .91.13 1.82.19 2.73.19.17 0 .33 0 .5-.01.74-.01 1.49-.07 2.23-.18 2.81-.4 5.5-1.43 7.86-3l2.12-1.42h.01c.01-.32.02-.63.02-.95 0-2.09-.29-4.18-.87-6.2z" fill="#d58936"/><path d="m53.42 10.3c.46 2.28-.16 4.53-1.57 6.18-.45-1.43-1.78-2.48-3.35-2.48h-3c-1.57 0-2.89 1.04-3.35 2.46-.61-.71-1.09-1.53-1.37-2.42-.72-2.28-.3-4.68 1.09-6.54l1.91-2.54c.45-.6 1.17-.96 1.92-.96h2.6c.75 0 1.47.36 1.92.96l1.85 2.46c.64.86 1.13 1.83 1.35 2.88z" fill="#666"/><path d="m22.13 7.5c1.39 1.86 1.81 4.26 1.09 6.54-.28.89-.76 1.71-1.37 2.42-.46-1.42-1.78-2.46-3.35-2.46h-3c-1.57 0-2.9 1.05-3.35 2.48-1.41-1.65-2.03-3.9-1.57-6.18.22-1.05.71-2.02 1.35-2.88l1.85-2.46c.45-.6 1.17-.96 1.92-.96h2.6c.75 0 1.47.36 1.92.96z" fill="#666"/><path d="m21.11 6.15c-.26-.1-.53-.15-.81-.15h-2.6c-.75 0-1.47.36-1.92.96l-1.85 2.46c-.64.86-1.13 1.83-1.35 2.88-.22 1.09-.19 2.18.05 3.19-.2.3-.37.63-.48.99-1.41-1.65-2.03-3.9-1.57-6.18.22-1.05.71-2.02 1.35-2.88l1.85-2.46c.45-.6 1.17-.96 1.92-.96h2.6c.75 0 1.47.36 1.92.96z" fill="#4d4d4d"/><path d="m51.11 6.15c-.26-.1-.53-.15-.81-.15h-2.6c-.75 0-1.47.36-1.92.96l-1.85 2.46c-.64.86-1.13 1.83-1.35 2.88-.22 1.09-.19 2.18.05 3.19-.2.3-.37.63-.48.99-1.41-1.65-2.03-3.9-1.57-6.18.22-1.05.71-2.02 1.35-2.88l1.85-2.46c.45-.6 1.17-.96 1.92-.96h2.6c.75 0 1.47.36 1.92.96z" fill="#4d4d4d"/><path d="m10.99 19.57c-1.92-1.66-3.16-3.96-3.48-6.48-.05-.42-.08-.84-.08-1.26 0-.35.02-.71.06-1.05v-.01c.19-1.82.87-3.58 1.98-5.07l1.91-2.54c1.02-1.36 2.62-2.16 4.32-2.16h2.6c1.7 0 3.3.8 4.32 2.16l1.91 2.54c1.11 1.49 1.79 3.25 1.98 5.07v.01c.08.76.08 1.54-.02 2.31-.16 1.26-.55 2.47-1.14 3.56-.59 1.1-1.38 2.09-2.34 2.92l-2.59 2.21c-.4.34-.95.3-1.3 0-.18-.15-.31-.37-.34-.64l-.15-1.19c-.04-.33.09-.66.34-.88l1.93-1.65c.34-.29.66-.61.95-.95v-.01c.61-.71 1.09-1.53 1.37-2.42.72-2.28.3-4.68-1.09-6.54l-1.91-2.54c-.45-.6-1.17-.96-1.92-.96h-2.6c-.75 0-1.47.36-1.92.96l-1.85 2.46c-.64.86-1.13 1.83-1.35 2.88-.46 2.28.16 4.53 1.57 6.18v.01c.25.28.51.55.8.8l2.07 1.78c.26.22.39.55.34.89l-.14 1.18c-.03.27-.16.49-.34.64-.36.3-.9.34-1.3 0z" fill="#f4eaea"/><path d="m43.58 21.78-2.59-2.21c-.96-.83-1.75-1.82-2.34-2.92-.59-1.09-.98-2.3-1.14-3.56-.1-.77-.1-1.55-.02-2.31v-.01c.19-1.82.87-3.58 1.98-5.07l1.91-2.54c1.02-1.36 2.62-2.16 4.32-2.16h2.6c1.7 0 3.3.8 4.32 2.16l1.91 2.54c1.11 1.49 1.79 3.25 1.98 5.07v.01c.04.34.06.7.06 1.05 0 .42-.03.84-.08 1.26-.32 2.52-1.56 4.82-3.48 6.48l-2.59 2.21c-.4.34-.94.3-1.3 0-.18-.15-.31-.37-.34-.64l-.14-1.18c-.05-.34.08-.67.34-.89l2.07-1.78c.29-.25.55-.52.8-.8v-.01c1.41-1.65 2.03-3.9 1.57-6.18-.22-1.05-.71-2.02-1.35-2.88l-1.85-2.46c-.45-.6-1.17-.96-1.92-.96h-2.6c-.75 0-1.47.36-1.92.96l-1.91 2.54c-1.39 1.86-1.81 4.26-1.09 6.54.28.89.76 1.71 1.37 2.42v.01c.29.34.61.66.95.95l1.93 1.65c.25.22.38.55.34.88l-.15 1.19c-.03.27-.16.49-.34.64-.35.3-.9.34-1.3 0z" fill="#f4eaea"/><path d="m56.57 11.83c0 .42-.03.84-.08 1.26-.23 1.8-.93 3.49-2.02 4.91l-.71-6.8c-.05-.49-.14-.96-.25-1.42v-.01c-.19-1.82-.87-3.58-1.98-5.07l-1.91-2.54c-.34-.45-.75-.85-1.2-1.15 1.66.03 3.2.82 4.2 2.15l1.91 2.54c1.11 1.49 1.79 3.25 1.98 5.07v.01c.04.34.06.7.06 1.05z" fill="#c1aeae"/><path d="m36.41 41.61c2.36 1.57 5.05 2.6 7.86 3 .91.13 1.82.19 2.73.19.17 0 .33 0 .5-.01.74-.01 1.49-.07 2.23-.18 2.81-.4 5.5-1.43 7.86-3l2.12-1.42h.01c-.02.31-.04.61-.06.92l-.45 5.32c-.14 1.71-.48 3.39-1.03 5.02-1.13 3.39-3.08 6.45-5.69 8.89l-.98.92c-1.22 1.15-2.83 1.79-4.51 1.79s-3.29-.64-4.51-1.79l-.98-.92c-2.61-2.44-4.56-5.5-5.69-8.89-.55-1.63-.89-3.31-1.03-5.02l-.45-5.32c-.02-.31-.04-.61-.06-.92h.01z" fill="#ffba08"/><path d="m6.41 41.61c2.36 1.57 5.05 2.6 7.86 3 .91.13 1.82.19 2.73.19.17 0 .33 0 .5-.01.74-.01 1.49-.07 2.23-.18 2.81-.4 5.5-1.43 7.86-3l2.12-1.42h.01c-.02.31-.04.61-.06.92l-.45 5.32c-.14 1.71-.48 3.39-1.03 5.02-1.13 3.39-3.08 6.45-5.69 8.89l-.98.92c-1.22 1.15-2.83 1.79-4.51 1.79s-3.29-.64-4.51-1.79l-.98-.92c-2.61-2.44-4.56-5.5-5.69-8.89-.55-1.63-.89-3.31-1.03-5.02l-.45-5.32c-.02-.31-.04-.61-.06-.92h.01z" fill="#ffba08"/><path d="m51.86 39.51-.31-2.01-.76-4.93-.76-4.91-.91-5.88c-.18-.15-.31-.37-.34-.64l-.14-1.18c-.05-.34.08-.67.34-.89l2.07-1.78c.29-.25.55-.52.8-.8v-.01c-.45-1.43-1.78-2.48-3.35-2.48h-3c-1.57 0-2.89 1.04-3.35 2.46v.01c.29.34.61.66.95.95l1.93 1.65c.25.22.38.55.34.88l-.15 1.19c-.03.27-.16.49-.34.64v.01l-.91 5.89-.75 4.88-.77 4.94-.31 2.01c-.08.88.43 1.72 1.25 2.05 1.16.46 2.39.69 3.61.69.15 0 .31 0 .46-.01 1.07-.05 2.14-.28 3.15-.68.76-.31 1.26-1.06 1.26-1.87 0-.06 0-.12-.01-.18z" fill="#9e7059"/><path d="m21.55 37.5-.77-4.94-.75-4.88-.91-5.89v-.01c-.18-.15-.31-.37-.34-.64l-.15-1.19c-.04-.33.09-.66.34-.88l1.93-1.65c.34-.29.66-.61.95-.95v-.01c-.46-1.42-1.78-2.46-3.35-2.46h-3c-1.57 0-2.9 1.05-3.35 2.48v.01c.25.28.51.55.8.8l2.07 1.78c.26.22.39.55.34.89l-.14 1.18c-.03.27-.16.49-.34.64l-.91 5.88-.76 4.91-.76 4.93-.31 2.01c-.01.06-.01.12-.01.18 0 .81.5 1.56 1.26 1.87 1.16.46 2.39.69 3.61.69.15 0 .31 0 .46-.01 1.67-.19 2.42-.39 3.15-.68.82-.33 1.33-1.17 1.25-2.05z" fill="#9e7059"/><path d="m58.87 33.04c-.58-2.02-.87-4.1-.87-6.2 0-1.89-.1-3.78-.3-5.67l-.94-8.97c-.05-.49-.14-.96-.25-1.42.04.34.06.7.06 1.05 0 .42-.03.84-.08 1.26-.32 2.52-1.56 4.82-3.48 6.48l-2.59 2.21c-.4.34-.94.3-1.3 0l.91 5.88.76 4.91.76 4.93.31 2.01c.01.06.01.12.01.18 0 .81-.5 1.56-1.26 1.87-1.01.4-2.08.63-3.15.68-.15.01-.31.01-.46.01-1.22 0-2.45-.23-3.61-.69-.82-.33-1.33-1.17-1.25-2.05l.31-2.01.77-4.94.75-4.88.91-5.89v-.01c-.35.3-.9.34-1.3 0l-2.59-2.21c-.96-.83-1.75-1.82-2.34-2.92-.59-1.09-.98-2.3-1.14-3.56-.1-.77-.1-1.55-.02-2.31-.11.46-.2.93-.25 1.42l-.94 8.97c-.2 1.89-.3 3.78-.3 5.67 0 2.1-.29 4.18-.87 6.2s-.87 4.11-.87 6.2c0 .32.01.63.02.95h.01l2.12 1.42c2.36 1.57 5.05 2.6 7.86 3 .91.13 1.82.19 2.73.19.17 0 .33 0 .5-.01.74-.01 1.49-.07 2.23-.18 2.81-.4 5.5-1.43 7.86-3l2.12-1.42h.01c.09-2.42-.18-4.83-.85-7.15z" fill="#d58936"/><path d="m51.43 40.94c-.21.27-.49.49-.82.62-1.01.4-2.08.63-3.15.68-.15.01-.31.01-.46.01-1.22 0-2.45-.23-3.61-.69-.82-.33-1.33-1.17-1.25-2.05l.31-2.01.77-4.94.75-4.88.91-5.89v-.01c.18-.15.31-.37.34-.64l.15-1.19c.04-.33-.09-.66-.34-.88l-1.93-1.65c-.34-.29-.66-.61-.95-.95v-.01c.25-.76.74-1.41 1.38-1.85.18.3.39.58.62.85v.01c.29.34.61.66.95.95l1.93 1.65c.25.22.38.55.34.88l-.15 1.19c-.03.27-.16.49-.34.64v.01l-.91 5.89-.75 4.88-.77 4.94-.31 2.01c-.08.88.43 1.72 1.25 2.05 1.16.46 2.39.69 3.61.69.15 0 .31 0 .46-.01.66-.03 1.32-.13 1.97-.3z" fill="#995b3f"/><path d="m21.43 40.94c-.21.27-.49.49-.82.62-1.01.4-2.08.63-3.15.68-.15.01-.31.01-.46.01-1.22 0-2.45-.23-3.61-.69-.82-.33-1.33-1.17-1.25-2.05l.31-2.01.77-4.94.75-4.88.91-5.89v-.01c.18-.15.31-.37.34-.64l.15-1.19c.04-.33-.09-.66-.34-.88l-1.93-1.65c-.34-.29-.66-.61-.95-.95v-.01c.25-.76.74-1.41 1.38-1.85.18.3.39.58.62.85v.01c.29.34.61.66.95.95l1.93 1.65c.25.22.38.55.34.88l-.15 1.19c-.03.27-.16.49-.34.64v.01l-.91 5.89-.75 4.88-.77 4.94-.31 2.01c-.08.88.43 1.72 1.25 2.05 1.16.46 2.39.69 3.61.69.15 0 .31 0 .46-.01.66-.03 1.32-.13 1.97-.3z" fill="#995b3f"/><path d="m59.72 40.19c-.02.31-.04.61-.06.92l-.45 5.32c-.14 1.71-.48 3.39-1.03 5.02-1.13 3.39-3.08 6.45-5.69 8.89l-.98.92c-1.22 1.15-2.83 1.79-4.51 1.79-1.26 0-2.47-.36-3.52-1.02.17.01.35.02.52.02 1.68 0 3.29-.64 4.51-1.79l.98-.92c2.61-2.44 4.56-5.5 5.69-8.89.55-1.63.89-3.31 1.03-5.02l.27-3.14c.38-.21.75-.44 1.11-.68l2.12-1.42z" fill="#faa307"/><path d="m59.72 40.19h-.01l-2.12 1.42c-.36.24-.73.47-1.11.67l.18-2.17c.02-.31.04-.61.06-.92.09-2.42-.18-4.83-.85-7.15-.58-2.02-.87-4.1-.87-6.2 0-1.89-.1-3.78-.3-5.67l-.23-2.17c1.09-1.42 1.79-3.11 2.02-4.91.05-.42.08-.84.08-1.26 0-.35-.02-.71-.06-1.05.11.46.2.93.25 1.42l.94 8.97c.2 1.89.3 3.78.3 5.67 0 2.1.29 4.18.87 6.2.67 2.32.94 4.73.85 7.15z" fill="#c17223"/><path d="m26.57 11.83c0 .42-.03.84-.08 1.26-.23 1.8-.93 3.49-2.02 4.91l-.71-6.8c-.05-.49-.14-.96-.25-1.42v-.01c-.19-1.82-.87-3.58-1.98-5.07l-1.91-2.54c-.34-.45-.75-.85-1.2-1.15 1.66.03 3.2.82 4.2 2.15l1.91 2.54c1.11 1.49 1.79 3.25 1.98 5.07v.01c.04.34.06.7.06 1.05z" fill="#c1aeae"/><path d="m29.72 40.19c-.02.31-.04.61-.06.92l-.45 5.32c-.14 1.71-.48 3.39-1.03 5.02-1.13 3.39-3.08 6.45-5.69 8.89l-.98.92c-1.22 1.15-2.83 1.79-4.51 1.79-1.26 0-2.47-.36-3.52-1.02.17.01.35.02.52.02 1.68 0 3.29-.64 4.51-1.79l.98-.92c2.61-2.44 4.56-5.5 5.69-8.89.55-1.63.89-3.31 1.03-5.02l.27-3.14c.38-.21.75-.44 1.11-.68l2.12-1.42z" fill="#faa307"/><path d="m29.72 40.19h-.01l-2.12 1.42c-.36.24-.73.47-1.11.67l.18-2.17c.02-.31.04-.61.06-.92.09-2.42-.18-4.83-.85-7.15-.58-2.02-.87-4.1-.87-6.2 0-1.89-.1-3.78-.3-5.67l-.23-2.17c1.09-1.42 1.79-3.11 2.02-4.91.05-.42.08-.84.08-1.26 0-.35-.02-.71-.06-1.05.11.46.2.93.25 1.42l.94 8.97c.2 1.89.3 3.78.3 5.67 0 2.1.29 4.18.87 6.2.67 2.32.94 4.73.85 7.15z" fill="#c17223"/><g><g><path d="m17 39c-1.824 0-3.486-.185-4.805-.533-2.069-.51-3.125-1.341-3.125-2.467 0-.552.448-1 1-1 .505 0 .923.375.99.861.136.128.596.414 1.629.668 1.156.305 2.681.471 4.311.471s3.155-.166 4.294-.467c1.048-.259 1.509-.544 1.646-.672.067-.486.485-.861.99-.861.552 0 1 .448 1 1 0 1.126-1.057 1.957-3.141 2.471-1.303.344-2.965.529-4.789.529z" fill="#c1aeae"/></g><g><path d="m16.97 34c-1.471 0-2.858-.16-4.014-.463-2.541-.644-3.076-1.735-3.076-2.537 0-.552.448-1 1-1 .521 0 .948.397.996.905.113.125.554.435 1.58.695.985.259 2.231.4 3.514.4 1.336 0 2.564-.14 3.55-.406 1.015-.268 1.441-.565 1.555-.692.049-.506.475-.902.995-.902.552 0 1 .448 1 1 0 .787-.526 1.864-3.035 2.527-1.148.309-2.556.473-4.065.473z" fill="#c1aeae"/></g><g><path d="m17.03 29c-1.299 0-2.417-.126-3.325-.375-2.422-.647-2.785-1.922-2.785-2.625 0-.552.448-1 1-1s1 .448 1 1c0 .045.244.41 1.308.694.742.203 1.682.306 2.802.306 1.069 0 1.996-.097 2.755-.289 1.102-.286 1.355-.664 1.355-.711 0-.552.448-1 1-1s1 .448 1 1c0 .712-.372 2.003-2.859 2.648-.925.234-2.017.352-3.251.352z" fill="#c1aeae"/></g><g><path d="m47 39c-1.824 0-3.486-.185-4.805-.533-2.068-.51-3.125-1.341-3.125-2.467 0-.552.448-1 1-1 .505 0 .923.375.99.861.136.128.596.414 1.629.668 1.156.305 2.681.471 4.311.471s3.155-.166 4.294-.467c1.048-.259 1.509-.544 1.646-.672.067-.486.485-.861.99-.861.552 0 1 .448 1 1 0 1.126-1.057 1.957-3.141 2.471-1.303.344-2.965.529-4.789.529zm-5.93-3h.01z" fill="#c1aeae"/></g><g><path d="m47.03 34c-1.509 0-2.917-.164-4.069-.474-2.504-.662-3.03-1.739-3.03-2.526 0-.552.448-1 1-1 .52 0 .946.396.995.902.114.126.54.424 1.55.691.99.267 2.217.407 3.554.407 1.283 0 2.529-.141 3.507-.397 1.033-.262 1.475-.572 1.588-.697.047-.509.475-.906.995-.906.552 0 1 .448 1 1 0 .802-.535 1.893-3.084 2.539-1.148.301-2.536.461-4.006.461zm-5.1-3h.01z" fill="#c1aeae"/></g><g><path d="m46.97 29c-1.234 0-2.326-.118-3.245-.351-2.494-.646-2.865-1.937-2.865-2.649 0-.552.448-1 1-1s1 .448 1 1c0 .047.254.425 1.361.712.753.191 1.68.288 2.749.288 1.12 0 2.06-.103 2.794-.304 1.072-.286 1.315-.65 1.315-.696 0-.552.448-1 1-1s1 .448 1 1c0 .703-.363 1.978-2.792 2.626-.899.248-2.018.374-3.317.374z" fill="#c1aeae"/></g></g><path d="m10.08 51.706c-.127-.642-.386-1.341-.617-1.754-.59-1.058-1.475-1.109-1.744-.253-.436 1.387 1.236 3.751 2.104 3.456.377-.129.394-.755.257-1.449z" fill="#f7da9a"/></g></svg>