<svg height="512pt" viewBox="-48 0 512 512" width="512pt" xmlns="http://www.w3.org/2000/svg"><path d="m210.03125 512c-2.378906 0-4.769531-.089844-7.167969-.277344-24.621093-1.894531-46.917969-13.355468-62.789062-32.273437-15.332031-18.269531-22.8125-41.429688-21.070313-65.214844 1.742188-23.785156 12.523438-45.609375 30.351563-61.449219l73.378906-65.191406c7.480469-6.648438 11.773437-16.199219 11.773437-26.210938v-179.339843c0-8.296875 6.726563-15.027344 15.023438-15.027344h151.628906c3.988282 0 7.808594 1.585937 10.625 4.402344 2.820313 2.816406 4.402344 6.640625 4.402344 10.625l-.003906 236.179687c0 27.441406-11.84375 53.542969-32.496094 71.613282l-113.832031 99.613281c-16.769531 14.675781-37.789063 22.550781-59.824219 22.550781zm0 0" fill="#d1f7ff"/><path d="m401.160156 67.015625h-75.8125v373.875l58.339844-51.054687c20.652344-18.070313 32.496094-44.171876 32.496094-71.613282l.003906-236.179687c0-3.984375-1.582031-7.808594-4.402344-10.625-2.816406-2.816407-6.640625-4.402344-10.625-4.402344zm0 0" fill="#a3efff"/><path d="m401.160156 67.015625h-151.628906c-8.296875 0-15.023438 6.730469-15.023438 15.027344v70.121093h181.679688v-70.121093c0-3.984375-1.582031-7.808594-4.402344-10.625-2.816406-2.816407-6.640625-4.402344-10.625-4.402344zm0 0" fill="#28c1d1"/><path d="m401.160156 67.015625h-75.8125v85.148437h90.839844v-70.121093c0-3.984375-1.582031-7.808594-4.402344-10.625-2.816406-2.816407-6.640625-4.402344-10.625-4.402344zm0 0" fill="#00a2b2"/><path d="m416.183594 282.398438-15.023438-.042969c-36.636718 0-66.335937 29.699219-66.335937 66.335937 0 18.328125 7.429687 34.921875 19.445312 46.925782l9.257813 11.863281 20.160156-17.644531c20.652344-18.070313 32.496094-44.171876 32.496094-71.613282zm0 0" fill="#00a2b2"/><path d="m155.882812 367.371094-19.160156-.800782c-10.257812 13.765626-16.4375 30.179688-17.71875 47.664063-1.742187 23.785156 5.738282 46.945313 21.070313 65.214844 15.871093 18.917969 38.167969 30.378906 62.789062 32.273437 2.398438.1875 4.789063.277344 7.167969.277344 15.171875 0 29.863281-3.734375 43.019531-10.855469l.140625-17.714843c.59375-4.464844.902344-9.015626.902344-13.636719 0-55.175781-43.589844-100.167969-98.210938-102.421875zm0 0" fill="#28c1d1"/><path d="m91.273438 444.980469c-2.378907 0-4.765626-.089844-7.164063-.273438-24.621094-1.898437-46.917969-13.359375-62.792969-32.273437-15.328125-18.269532-22.8125-41.433594-21.066406-65.21875 1.742188-23.785156 12.519531-45.609375 30.351562-61.449219l73.375-65.1875c7.484376-6.648437 11.777344-16.203125 11.777344-26.210937v-179.339844c0-8.300782 6.726563-15.027344 15.023438-15.027344h151.628906c3.984375 0 7.804688 1.582031 10.625 4.402344 2.816406 2.816406 4.398438 6.636718 4.398438 10.625v236.179687c-.003907 27.441407-11.847657 53.542969-32.496094 71.613281l-113.832032 99.609376c-16.773437 14.679687-37.789062 22.550781-59.828124 22.550781zm0 0" fill="#d1f7ff"/><path d="m282.40625 0h-75.816406v373.875l58.34375-51.054688c20.648437-18.070312 32.496094-44.171874 32.496094-71.613281v-236.179687c0-3.988282-1.582032-7.808594-4.398438-10.625-2.820312-2.820313-6.640625-4.402344-10.625-4.402344zm0 0" fill="#a3efff"/><path d="m282.40625 0h-151.628906c-8.296875 0-15.023438 6.726562-15.023438 15.027344v70.117187h181.675782v-70.117187c0-3.988282-1.582032-7.808594-4.398438-10.625-2.820312-2.820313-6.640625-4.402344-10.625-4.402344zm0 0" fill="#6ad9eb"/><path d="m282.40625 0h-75.816406v85.144531h90.839844v-70.117187c0-3.988282-1.582032-7.808594-4.398438-10.625-2.820312-2.820313-6.640625-4.402344-10.625-4.402344zm0 0" fill="#28c1d1"/><path d="m297.429688 215.378906-15.023438-.039062c-36.636719 0-66.335938 29.699218-66.335938 66.335937 0 18.328125 7.429688 34.917969 19.445313 46.925781l9.257813 11.859376 20.160156-17.640626c20.652344-18.070312 32.496094-44.171874 32.496094-71.613281zm0 0" fill="#28c1d1"/><path d="m37.128906 300.355469-19.164062-.800781c-10.253906 13.765624-16.433594 30.175781-17.714844 47.660156-1.742188 23.785156 5.738281 46.949218 21.070312 65.21875 15.871094 18.914062 38.167969 30.375 62.789063 32.273437 2.398437.183594 4.785156.273438 7.167969.273438 15.171875 0 29.863281-3.734375 43.019531-10.851563l.140625-17.71875c.59375-4.460937.898438-9.011718.898438-13.636718 0-55.171876-43.589844-100.164063-98.207032-102.417969zm0 0" fill="#6ad9eb"/></svg>