<svg id="Capa_1" enable-background="new 0 0 512 512" height="512" viewBox="0 0 512 512" width="512" xmlns="http://www.w3.org/2000/svg"><g><path d="m299.554 426.081-34.277-34.277v-376.804c0-8.284-6.716-15-15-15h-235.277c-8.284 0-15 6.716-15 15v412.286c0 3.978 1.581 7.793 4.394 10.606l59.366 59.366c9.506 9.507 22.145 14.742 35.588 14.742 13.444 0 26.083-5.235 35.589-14.742 19.624-19.624 19.624-51.554 0-71.177l-34.277-34.277v-235.723c0-18.067 14.699-32.766 32.766-32.766 8.798 0 17.057 3.439 23.255 9.683s9.576 14.528 9.511 23.326v.023l-1.575 270.851c-.023 4.009 1.559 7.859 4.393 10.694l59.366 59.366c19.623 19.624 51.554 19.624 71.177 0 9.506-9.506 14.742-22.145 14.742-35.588 0-13.444-5.235-26.083-14.741-35.589z" fill="#5aa0ff"/><path d="m265.277 391.804v-376.804c0-8.284-6.716-15-15-15h-116.851v123.314c8.798 0 17.057 3.439 23.255 9.683s9.576 14.528 9.511 23.326v.023l-1.575 270.851c-.023 4.009 1.559 7.859 4.393 10.694l59.366 59.366c19.623 19.624 51.554 19.624 71.177 0 9.506-9.506 14.742-22.145 14.742-35.588 0-13.444-5.235-26.083-14.741-35.589z" fill="#0082bf"/></g></svg>