<svg height="469pt" viewBox="-32 0 469 469.33342" width="469pt" xmlns="http://www.w3.org/2000/svg"><path d="m192.167969 0c-74.523438 0-132.976563 17.855469-164.964844 30.464844-16.332031 6.410156-27.0625 22.179687-27.035156 39.726562v324.476563c0 41.234375 33.429687 74.664062 74.664062 74.664062 41.238281 0 74.667969-33.429687 74.667969-74.664062v-136.386719c0-21.253906 14.523438-40.949219 35.5-44.363281 12.394531-2.101563 25.082031 1.363281 34.683594 9.472656 9.605468 8.109375 15.144531 20.039063 15.148437 32.609375v138.667969c0 41.234375 33.429688 74.664062 74.667969 74.664062s74.667969-33.429687 74.667969-74.664062v-53.335938c4.140625-17.726562 21.332031-21.332031 21.332031-43.375 0-20.625-21.332031-20.625-21.332031-41.957031s21.332031-21.332031 21.332031-42.667969c0-21.332031-21.332031-21.332031-21.332031-42.664062v-100.476563c.027343-17.546875-10.707031-33.316406-27.039063-39.726562-31.988281-12.609375-90.441406-30.464844-164.960937-30.464844zm0 0" fill="#27b9d4"/><path d="m64.167969 448c-40.085938 0-64-27.917969-64-74.667969v-160h21.332031v160c0 24.335938 7.394531 53.335938 42.667969 53.335938 35.269531 0 42.664062-29 42.664062-53.335938v-106.664062c0-72.6875 43.355469-90.34375 64-94.636719v-129.363281h21.335938v149.332031h-10.667969c-5.394531.074219-53.332031 2.792969-53.332031 74.667969v106.664062c0 46.75-23.917969 74.667969-64 74.667969zm0 0" fill="#009fc2"/><path d="m320.167969 448c-50.625 0-64-34.886719-64-53.332031v-138.667969h21.332031v138.667969c.0625 3.1875 1.769531 32 42.667969 32zm0 0" fill="#009fc2"/><path d="m320.167969 426.667969v-21.335938c11.777343-.011719 21.320312-9.554687 21.332031-21.332031v-44.5c-.019531-8.492188 3.355469-16.636719 9.375-22.625 4.167969-4.164062 4.167969-10.917969 0-15.082031-6.019531-5.988281-9.394531-14.136719-9.375-22.625v-25c-.019531-8.492188 3.355469-16.636719 9.375-22.625 4.167969-4.164063 4.167969-10.921875 0-15.085938l-6.25-6.25 15.082031-15.082031 6.25 6.25c12.480469 12.503906 12.480469 32.746094 0 45.25-1.988281 2.007812-3.109375 4.714844-3.125 7.542969v25c.015625 2.824219 1.136719 5.53125 3.125 7.539062 12.480469 12.503907 12.480469 32.75 0 45.25-1.988281 2.007813-3.109375 4.714844-3.125 7.542969v44.5c-.027343 23.554688-19.113281 42.640625-42.664062 42.667969zm0 0" fill="#5bcade"/><path d="m.167969 341.332031h149.332031v42.667969h-149.332031zm0 0" fill="#f9c450"/><path d="m142.039062 426.667969h-134.410156c12.242188 26.039062 38.429688 42.664062 67.203125 42.664062 28.777344 0 54.964844-16.625 67.207031-42.664062zm0 0" fill="#f9c450"/><path d="m64.167969 448c20.757812 0 37.0625-7.621094 48.074219-21.332031h-96.148438c11.007812 13.710937 27.3125 21.332031 48.074219 21.332031zm0 0" fill="#d88d00"/><path d="m376.707031 426.667969h-134.414062c12.246093 26.039062 38.429687 42.664062 67.207031 42.664062s54.960938-16.625 67.207031-42.664062zm0 0" fill="#f9c450"/><path d="m320.167969 448v-21.332031h-52.113281c9.515624 11.742187 25.632812 21.332031 52.113281 21.332031zm0 0" fill="#d88d00"/><path d="m.167969 256h149.332031v42.667969h-149.332031zm0 0" fill="#f9c450"/><path d="m106.832031 341.332031h42.667969v42.667969h-42.667969zm0 0" fill="#ebad1e"/><path d="m106.832031 256h42.667969v42.667969h-42.667969zm0 0" fill="#ebad1e"/><path d="m234.832031 256h149.335938v42.667969h-149.335938zm0 0" fill="#f9c450"/><path d="m234.832031 341.332031h149.335938v42.667969h-149.335938zm0 0" fill="#f9c450"/><path d="m234.832031 256h42.667969v42.667969h-42.667969zm0 0" fill="#ebad1e"/><path d="m234.832031 341.332031h42.667969v42.667969h-42.667969zm0 0" fill="#ebad1e"/><path d="m.167969 170.667969v42.664062h405.332031c0-21.332031-21.332031-21.332031-21.332031-42.664062zm0 0" fill="#f9c450"/><path d="m.167969 85.332031h320v42.667969h-320zm0 0" fill="#f9c450"/><path d="m107.238281 256c-.21875 3.445312-.40625 6.9375-.40625 10.667969v32h21.335938v-32c0-3.78125.199219-7.261719.453125-10.667969zm0 0" fill="#d88d00"/><path d="m.167969 256h21.332031v42.667969h-21.332031zm0 0" fill="#ebad1e"/><path d="m367.605469 104.886719c-.625-.40625-63.1875-40.886719-175.4375-40.886719-112.792969 0-174.8125 40.46875-175.417969 40.875l-11.832031-17.75c2.726562-1.8125 68.0625-44.457031 187.25-44.457031s184.519531 42.644531 187.25 44.457031zm0 0" fill="#009fc2"/><path d="m365.957031 201.375-6.25-6.25-15.082031 15.082031 3.125 3.125h25.496094c-1.496094-4.484375-3.988282-8.570312-7.289063-11.957031zm0 0" fill="#fad47f"/><path d="m341.5 256v23.167969c.027344 7.078125 2.421875 13.941406 6.808594 19.5h24.9375c-1.496094-4.484375-3.988282-8.574219-7.289063-11.960938-1.988281-2.007812-3.109375-4.714843-3.125-7.539062v-23.167969zm0 0" fill="#fad47f"/><path d="m341.5 341.332031h21.332031v42.667969h-21.332031zm0 0" fill="#fad47f"/><g fill="#009fc2"><path d="m.167969 85.332031h64v42.667969c0 35.347656-28.65625 64-64 64zm0 0"/><path d="m384.167969 192c-35.347657 0-64-28.652344-64-64v-42.667969h64zm0 0"/><path d="m.167969 234.667969v-21.335938c47.105469-.046875 85.28125-38.222656 85.332031-85.332031v-42.667969h21.332031v42.667969c-.066406 58.882812-47.785156 106.597656-106.664062 106.667969zm0 0"/></g><path d="m.167969 213.332031v-21.332031c35.328125-.039062 63.960937-28.667969 64-64v-42.667969h21.332031v42.667969c-.050781 47.109375-38.226562 85.285156-85.332031 85.332031zm0 0" fill="#5bcade"/><path d="m64.167969 85.332031h21.332031v42.667969h-21.332031zm0 0" fill="#fad47f"/><path d="m73.632812 170.667969h-26.113281c-12.027343 13.523437-29.25 21.28125-47.351562 21.332031v21.332031c31.445312 0 58.664062-17.285156 73.464843-42.664062zm0 0" fill="#fad47f"/><path d="m192.167969 85.332031h21.332031v85.335938h-21.332031zm0 0" fill="#fad47f"/><path d="m192.167969 128h21.332031v42.667969h-21.332031zm0 0" fill="#5bcade"/><path d="m192.167969 170.667969h21.332031v21.332031h-21.332031zm0 0" fill="#fad47f"/><path d="m21.5 42.667969h21.332031v42.664062h-21.332031zm0 0" fill="#009fc2"/><path d="m42.832031 64h21.335938v-42.667969h-11.1875c-3.546875 1.128907-6.925781 2.246094-10.148438 3.363281zm0 0" fill="#5bcade"/><path d="m85.5 21.332031h21.332031v42.667969h-21.332031zm0 0" fill="#009fc2"/><path d="m106.832031 21.332031h21.335938v21.335938h-21.335938zm0 0" fill="#5bcade"/><path d="m170.832031.492188c-7.292969.335937-14.40625.824218-21.332031 1.472656v40.703125h21.332031zm0 0" fill="#009fc2"/><path d="m170.832031 42.667969h21.335938v-42.667969c-7.269531 0-14.382813.164062-21.335938.492188zm0 0" fill="#5bcade"/><path d="m213.5.492188v42.175781h21.332031v-40.703125c-6.925781-.636719-14.035156-1.125-21.332031-1.472656zm0 0" fill="#009fc2"/><path d="m234.832031 21.332031h21.335938v21.335938h-21.335938zm0 0" fill="#5bcade"/><path d="m277.5 21.332031h21.332031v42.667969h-21.332031zm0 0" fill="#009fc2"/><path d="m298.832031 42.667969h21.335938v21.332031h-21.335938zm0 0" fill="#5bcade"/><path d="m341.5 42.667969h21.332031v42.664062h-21.332031zm0 0" fill="#009fc2"/><path d="m384.167969 70.191406c-.003907-2.070312-.152344-4.140625-.453125-6.191406h-20.882813v21.332031h21.335938zm0 0" fill="#5bcade"/><path d="m256.167969 256h21.332031v42.667969h-21.332031zm0 0" fill="#d88d00"/><path d="m256.167969 341.332031h21.332031v42.667969h-21.332031zm0 0" fill="#d88d00"/><path d="m170.832031 64h21.335938v21.332031h-21.335938zm0 0" fill="#0c87b6"/><path d="m170.832031 85.332031h21.335938v42.667969h-21.335938zm0 0" fill="#ebad1e"/><path d="m170.832031 170.667969h21.335938v42.664062h-21.335938zm0 0" fill="#d88d00"/><path d="m181.5 192h10.667969v-21.332031h-21.335938v1.363281c-14.1875 2.949219-39.09375 12.210938-53.292969 41.300781h24.796876c9.121093-12.707031 23.539062-20.5625 39.164062-21.332031zm0 0" fill="#ebad1e"/><path d="m106.832031 341.332031h21.335938v42.667969h-21.335938zm0 0" fill="#d88d00"/><path d="m.167969 341.332031h21.332031v42.667969h-21.332031zm0 0" fill="#ebad1e"/></svg>