<?xml version="1.0" encoding="iso-8859-1"?>
<!-- Generator: Adobe Illustrator 19.0.0, SVG Export Plug-In . SVG Version: 6.00 Build 0)  -->
<svg version="1.1" id="Capa_1" xmlns="http://www.w3.org/2000/svg" xmlns:xlink="http://www.w3.org/1999/xlink" x="0px" y="0px"
	 viewBox="0 0 464.029 464.029" style="enable-background:new 0 0 464.029 464.029;" xml:space="preserve">
<path style="fill:#EE8EB4;" d="M394.479,282.92l-13.6-71.32c-8.476-44.538-26.512-86.707-52.864-123.6V24c0-13.256-42.984-24-96-24
	s-96,10.744-96,24v64c-26.474,47.663-44.765,99.429-54.112,153.144l-10.688,61.424c-4.792,27.571-7.201,55.504-7.2,83.488
	c0.005,16.958,12.935,31.117,29.824,32.656l56.536,5.04l1.64,21.928l19.672,11.816c12.501,7.505,28.122,7.505,40.624,0l0.496-0.296
	c11.915-7.204,26.689-7.807,39.152-1.6l8.12,4.064c12.416,6.21,27.144,5.646,39.048-1.496l20.888-12.488l1.744-13.68h30.256
	c26.51,0,48-21.49,48-48v-42.4C400.017,321.91,398.164,302.263,394.479,282.92L394.479,282.92z"/>
<g>
	<path style="fill:#DD527C;" d="M136.015,88c-26.479,47.658-44.77,99.423-54.112,153.136l-10.688,61.432
		c-4.792,27.571-7.201,55.504-7.2,83.488c0.005,16.958,12.935,31.117,29.824,32.656l42.176,3.76
		c-25.885-35.239-38.877-78.301-36.8-121.976l3.736-78.4c0.698-14.671,3.087-29.213,7.12-43.336L136.015,88z"/>
	<path style="fill:#DD527C;" d="M328.015,88h-41.6v342.4l33.6,1.6h8c26.361-57.994,40-120.96,40-184.664V240
		c0-53.6-51.2-90.52-41.6-143.2L328.015,88z"/>
</g>
<path style="fill:#EE8EB4;" d="M168.015,88c-21.217,95.483-28.287,193.565-20.984,291.104l4.984,66.576l19.672,11.816
	c12.501,7.505,28.122,7.505,40.624,0l0.496-0.296c11.915-7.204,26.689-7.807,39.152-1.6l8.12,4.064
	c12.416,6.21,27.144,5.646,39.048-1.496l20.888-12.488l11.2-88c3.194-25.079,4.798-50.335,4.8-75.616
	c-0.001-59.69-8.927-119.045-26.48-176.096L304.015,88H168.015z"/>
<path style="fill:#DD527C;" d="M271.951,100.888c19.054-2.509,37.827-6.825,56.064-12.888V24c0-13.256-42.984-24-96-24
	s-96,10.744-96,24v64c9.953,3.297,20.071,6.077,30.312,8.328c-19.852,92.861-26.349,188.079-19.296,282.776l4.984,66.576
	l19.672,11.816c6.142,3.678,13.169,5.614,20.328,5.6l-8.232-38.104c-10.479-48.533-15.765-98.044-15.768-147.696
	c0.002-46.086,4.558-92.058,13.6-137.248l7.904-39.52c16.722,2.368,33.613,3.334,50.496,2.888V451.92
	c4.151,0.615,8.181,1.872,11.944,3.728l8.12,4.064c6.117,3.072,12.912,4.547,19.752,4.288l0.184-119.496V272
	c0-42.288-13.4-77.048-8.216-119.016L271.951,100.888z"/>
<g>
	<ellipse style="fill:#9B1E5A;" cx="232.015" cy="24" rx="96" ry="24"/>
	<path style="fill:#9B1E5A;" d="M200.015,352.528c-5.347-80.352-0.98-161.055,13.008-240.36l3.096-17.6l15.76,2.784l-3.096,17.6
		c-13.753,78.04-18.04,157.453-12.768,236.52L200.015,352.528z"/>
	<path style="fill:#9B1E5A;" d="M280.015,296.728l-16-1.456c5.253-57.843,3.76-116.102-4.448-173.6l-3.504-24.52l15.84-2.272
		l3.504,24.528C283.812,178.136,285.358,237.643,280.015,296.728z"/>
	<path style="fill:#9B1E5A;" d="M264.015,416h16v16h-16V416z"/>
	<path style="fill:#9B1E5A;" d="M280.015,400h16v16h-16V400z"/>
	<path style="fill:#9B1E5A;" d="M176.815,135.736l39.2-11.072v-32l-38.6-14.832c-3.562-1.374-7.563,0.399-8.937,3.961
		c-0.307,0.796-0.464,1.642-0.463,2.495v44.8c0.006,3.822,3.11,6.915,6.932,6.908C175.578,135.995,176.207,135.908,176.815,135.736
		L176.815,135.736z"/>
	<path style="fill:#9B1E5A;" d="M287.215,135.736l-39.2-11.072v-32l38.6-14.832c3.562-1.374,7.563,0.399,8.937,3.961
		c0.307,0.796,0.464,1.642,0.463,2.495v44.8c-0.006,3.822-3.11,6.915-6.932,6.908C288.451,135.995,287.823,135.908,287.215,135.736
		L287.215,135.736z"/>
	<path style="fill:#9B1E5A;" d="M216.015,92.664h32v32h-32V92.664z"/>
</g>
<g>
</g>
<g>
</g>
<g>
</g>
<g>
</g>
<g>
</g>
<g>
</g>
<g>
</g>
<g>
</g>
<g>
</g>
<g>
</g>
<g>
</g>
<g>
</g>
<g>
</g>
<g>
</g>
<g>
</g>
</svg>
