<svg id="Capa_1" enable-background="new 0 0 512 512" height="512" viewBox="0 0 512 512" width="512" xmlns="http://www.w3.org/2000/svg"><g><g><path d="m254.447 147.391-242.793 17.568-11.654 264.484h220.25l35.75-111.364 13.825-88.76-13.825-81.815z" fill="#d7e07e"/><path d="m497.239 164.959-241.239-17.455v170.575l31.84 111.364h224.16z" fill="#badb47"/></g><g><path d="m15.285 82.557-3.631 82.402h69.369l21.683-41.201-21.683-41.201z" fill="#1fc979"/><path d="m150.393 82.557-11.971 35.028 11.971 47.374h69.369l14.724-41.201-14.724-41.201z" fill="#1fc979"/><g fill="#19a995"><path d="m492.64 82.557h-64.77l-13.054 41.201 13.054 41.201h69.369z"/><path d="m289.131 82.557-14.916 41.201 14.916 41.201h69.369l25.6-41.201-25.6-41.201z"/></g></g><path d="m81.023 82.557h69.369v82.403h-69.369z" fill="#badb47"/><path d="m358.5 82.557h69.369v82.403h-69.369z" fill="#1fc979"/><g><g><g><path d="m187.733 298.249h-30v-61.083c0-38.566 17.208-74.582 47.213-98.813l16.249-12.418 2.598 35.758c-22.917 18.507-36.061 46.016-36.061 75.473v61.083z" fill="#2d6994"/></g></g><g><g><path d="m321.279 298.249h30v-61.083c0-38.566-17.208-74.582-47.213-98.813l-16.249-12.418-2.598 35.758c22.917 18.507 36.061 46.016 36.061 75.473v61.083z" fill="#2d5177"/></g></g></g><g><path d="m256 82.557h33.131v82.403h-33.131z" fill="#1fc979"/><path d="m219.762 82.557h36.238v82.403h-36.238z" fill="#badb47"/></g></g></svg>