<svg id="Capa_1" enable-background="new 0 0 512 512" height="512" viewBox="0 0 512 512" width="512" xmlns="http://www.w3.org/2000/svg"><g><g><path d="m344.516 324.403c-24.575 0-44.568 19.993-44.568 44.569 0 24.575 19.993 44.569 44.568 44.569 24.576 0 44.569-19.994 44.569-44.569 0-24.576-19.994-44.569-44.569-44.569zm0 76.999c-17.882 0-32.43-14.548-32.43-32.431 0-17.882 14.548-32.43 32.43-32.43 17.883 0 32.431 14.548 32.431 32.43 0 17.883-14.548 32.431-32.431 32.431z"/><path d="m511.861 479.058-28.028-265.454-3.044-77.682c-.509-12.996-11.096-23.177-24.102-23.177h-404.437c-13.3 0-24.121 10.821-24.121 24.121v77.101l-27.99 265.09c-.75 7.098 1.559 14.211 6.333 19.516s11.606 8.347 18.743 8.347h182.071c12.854 0 23.627-9.633 25.059-22.407l12.74-113.697c.474-4.228 4.039-7.416 8.294-7.416h5.242c4.255 0 7.821 3.189 8.295 7.417l12.74 113.696c1.431 12.774 12.205 22.407 25.059 22.407h182.071c7.137 0 13.969-3.043 18.743-8.348s7.082-12.418 6.332-19.514zm-42.516-210c-3.414 14.25-16.252 24.878-31.534 24.878-17.883 0-32.431-14.548-32.431-32.431 0-17.882 14.548-32.431 32.431-32.431 12.881 0 24.03 7.549 29.26 18.455zm-438.297 109.93c3.23-14.5 16.189-25.376 31.649-25.376 17.883 0 32.431 14.548 32.431 32.431 0 17.882-14.548 32.431-32.431 32.431-17.788 0-32.271-14.396-32.424-32.148zm122 77.692c0-17.882 14.548-32.431 32.431-32.431 14.313 0 26.482 9.324 30.773 22.215l-3.024 26.986c-3.586 5.912-9.01 10.587-15.471 13.241h-24.556c-11.811-4.851-20.153-16.473-20.153-30.011zm246.508 17.619c0-17.882 14.548-32.431 32.431-32.431s32.431 14.548 32.431 32.431c0 4.291-.858 8.487-2.474 12.391h-59.914c-1.615-3.904-2.474-8.1-2.474-12.391zm90.935 10.741c-.555.616-1.773 1.65-3.705 1.65h-11.981c1.155-3.999 1.752-8.164 1.752-12.391 0-24.576-19.994-44.569-44.569-44.569s-44.569 19.994-44.569 44.569c0 4.227.597 8.393 1.752 12.391h-84.456c-2.541 0-4.671-1.904-4.954-4.43l-12.74-113.696c-1.622-14.477-13.832-25.395-28.399-25.395h-5.242c-14.569 0-26.777 10.918-28.398 25.395l-6.518 58.17c-8.159-8.979-19.924-14.625-32.983-14.625-24.575 0-44.569 19.994-44.569 44.569 0 11.549 4.417 22.084 11.648 30.01h-127.345c-1.932 0-3.151-1.034-3.705-1.65-.555-.616-1.455-1.937-1.253-3.858l7.173-67.934c8.158 10.551 20.928 17.364 35.266 17.364 24.575 0 44.569-19.994 44.569-44.569 0-24.576-19.994-44.569-44.569-44.569-10.976 0-21.032 3.996-28.807 10.6l14.414-136.511c.037-.353.056-.707.056-1.062v-77.634c0-2.145 1.745-3.89 3.89-3.89h58.357v26.301c0 3.352 2.717 6.069 6.069 6.069s6.069-2.718 6.069-6.069v-26.301h56.494v26.301c0 3.352 2.717 6.069 6.069 6.069s6.069-2.718 6.069-6.069v-26.301h56.493v26.301c0 3.352 2.718 6.069 6.069 6.069s6.069-2.718 6.069-6.069v-26.301h60.612v26.301c0 3.352 2.718 6.069 6.069 6.069 3.352 0 6.069-2.718 6.069-6.069v-26.301h56.494v26.301c0 3.352 2.718 6.069 6.069 6.069 3.352 0 6.069-2.718 6.069-6.069v-26.301h55.292c2.097 0 3.805 1.642 3.887 3.738l3.057 78.016c.009.222.025.445.048.666l1.127 10.677c-7.498-5.727-16.854-9.137-26.995-9.137-24.575 0-44.569 19.994-44.569 44.569s19.994 44.569 44.569 44.569c13.506 0 25.618-6.047 33.798-15.565l20.133 190.674c.209 1.921-.691 3.241-1.245 3.858z"/><path d="m315.763 321.646c11.614-1.175 21.165-8.77 24.926-19.82 3.762-11.049.828-22.893-7.656-30.909l-65.45-61.846h155.584c3.352 0 6.069-2.717 6.069-6.069s-2.718-6.069-6.069-6.069h-334.333c-3.352 0-6.069 2.717-6.069 6.069s2.717 6.069 6.069 6.069h155.583l-54.869 51.847c-7.746-6.498-17.722-10.421-28.6-10.421-24.575 0-44.569 19.994-44.569 44.569s19.994 44.569 44.569 44.569c14.608 0 27.596-7.065 35.73-17.956 1.242.112 2.477.176 3.702.176 18.087 0 34.052-12.022 38.852-29.837l16.768-62.22 16.769 62.221c4.802 17.816 20.764 29.837 38.853 29.837 1.368-.001 2.752-.07 4.141-.21zm-122.384-26.579c0 4.432-.896 8.659-2.513 12.511-3.737-2.002-6.595-5.349-8.064-9.663-2.245-6.595-.562-13.39 4.502-18.175l1.44-1.361c2.94 4.878 4.635 10.588 4.635 16.688zm-32.431 32.43c-17.883 0-32.431-14.548-32.431-32.431 0-17.882 14.548-32.431 32.431-32.431 7.405 0 14.234 2.5 19.699 6.693l-1.681 1.589c-8.484 8.016-11.417 19.861-7.655 30.91 2.337 6.866 6.912 12.394 12.826 15.88-5.893 6.034-14.108 9.79-23.189 9.79zm66.564-38.637c-3.112 11.55-12.932 19.608-24.433 20.717 1.572-4.552 2.438-9.43 2.438-14.51 0-9.33-2.887-17.996-7.807-25.161l46.836-44.257zm56.976 0-17.035-63.211 57.243 54.092c5.065 4.785 6.748 11.579 4.503 18.175s-7.725 10.953-14.658 11.654c-13.812 1.39-26.442-7.316-30.053-20.71z"/><path d="m372.475 290.218v15.328c0 3.352 2.718 6.069 6.069 6.069 3.352 0 6.069-2.717 6.069-6.069v-15.328c0-3.352-2.718-6.069-6.069-6.069-3.352 0-6.069 2.717-6.069 6.069z"/><path d="m444.573 349.565c-3.352 0-6.069 2.718-6.069 6.069v15.328c0 3.352 2.717 6.069 6.069 6.069s6.069-2.717 6.069-6.069v-15.328c0-3.351-2.717-6.069-6.069-6.069z"/><path d="m419.401 383.91c-3.352 0-6.069 2.718-6.069 6.069v15.328c0 3.352 2.717 6.069 6.069 6.069s6.069-2.718 6.069-6.069v-15.328c0-3.351-2.717-6.069-6.069-6.069z"/><path d="m73.083 317.137c-.452 0-.91-.03-1.37-.092-5.536-.75-9.416-5.845-8.666-11.381l2.955-21.824c.75-5.536 5.846-9.416 11.381-8.667 5.536.75 9.416 5.845 8.666 11.381l-2.956 21.824c-.686 5.075-5.026 8.759-10.01 8.759z"/><path d="m81.626 258.182c-.452 0-.91-.03-1.37-.092-5.537-.75-9.416-5.846-8.666-11.382l.968-7.147c.751-5.535 5.848-9.413 11.381-8.666 5.537.75 9.416 5.846 8.666 11.382l-.968 7.147c-.688 5.074-5.029 8.758-10.011 8.758z"/></g><g><path d="m337.517 7.555-8.309 23.364c-.356 1-1.06 1.793-1.949 2.194l-20.759 9.352c-2.933 1.321-2.933 5.994 0 7.315l20.758 9.352c.889.4 1.593 1.193 1.949 2.194l8.309 23.364c1.174 3.301 5.325 3.301 6.499 0l8.309-23.364c.356-1 1.06-1.793 1.949-2.194l20.758-9.352c2.933-1.321 2.933-5.994 0-7.315l-20.758-9.352c-.889-.401-1.593-1.193-1.949-2.194l-8.309-23.364c-1.173-3.301-5.324-3.301-6.498 0z"/><path d="m60.286 24.973-6.164 17.331c-.264.742-.786 1.33-1.446 1.627l-15.398 6.937c-2.175.98-2.175 4.446 0 5.426l15.398 6.937c.659.297 1.182.885 1.446 1.627l6.164 17.331c.871 2.448 3.95 2.448 4.821 0l6.164-17.331c.264-.742.786-1.33 1.446-1.627l15.398-6.937c2.175-.98 2.175-4.446 0-5.426l-15.398-6.937c-.659-.297-1.182-.885-1.446-1.627l-6.164-17.331c-.871-2.449-3.95-2.449-4.821 0z"/><ellipse cx="483.743" cy="53.582" rx="18.144" ry="18.144" transform="matrix(.987 -.16 .16 .987 -2.337 78.179)"/><path d="m186.218 31.321c0 4.323 3.504 7.827 7.827 7.827s7.827-3.504 7.827-7.827-3.504-7.827-7.827-7.827-7.827 3.504-7.827 7.827z"/></g></g></svg>